<?xml version="1.0" encoding="UTF-8"?>
<svg id="Layer_1" data-name="Layer 1" xmlns="http://www.w3.org/2000/svg" viewBox="0 0 990 212.45">
  <g>
    <path d="M339.14,96.07c-13.65,0-20.4,10.74-23.5,17.67-1.73,3.87-2.21,6.93-3.62,6.93-1.98,0-.56-2.66-2.18-8.55-2.13-7.76-8.55-16.04-22.19-16.04-14.34,0-20.48,12.12-23.39,18.77-1.99,4.55-1.99,5.82-3.52,5.82-2.22,0-.38-3.61,.62-7.86,1.97-8.37,.47-14.76,.47-14.76h-22.73v85.48h31.03v-42.53c0-8.39,3.51-19.03,9.52-19.03,6.95,0,8.34,5.34,8.34,15.22v46.36h31.15v-42.55c0-7.47,3.05-19.03,9.57-19.03,7.05,0,8.29,7.5,8.29,15.22v46.34h30.59v-50.26c0-22.31-7.86-37.18-28.45-37.18Z"/>
    <path d="M865.79,96.07c-13.65,0-20.4,10.74-23.5,17.67-1.73,3.87-2.21,6.93-3.62,6.93-1.98,0-.65-3.38-2.18-8.55-2.27-7.72-7.93-16.04-22.19-16.04s-20.48,12.12-23.39,18.77c-1.99,4.55-1.99,5.82-3.52,5.82-2.22,0-.38-3.61,.62-7.86,1.97-8.37,.47-14.76,.47-14.76h-22.73v85.48h31.03v-42.53c0-8.39,3.51-19.03,9.52-19.03,6.95,0,8.34,5.34,8.34,15.22v46.36h31.15v-42.55c0-7.47,3.05-19.03,9.57-19.03,7.05,0,8.29,7.5,8.29,15.22v46.34h30.59v-50.26c0-22.31-7.86-37.18-28.45-37.18Z"/>
    <path d="M420.58,96.09c-23.77,0-40.82,8.74-40.82,8.74v25.69s18.83-10.83,34.11-10.83c12.2,0,13.69,6.58,13.14,12.04,0,0-3.52-.93-14.25-.93-25.29,0-38.05,11.49-38.05,29.92,0,17.48,14.35,24.79,26.44,24.79,17.64,0,25.39-11.85,27.78-17.48,1.65-3.9,1.95-6.53,3.44-6.53,1.69,0,1.12,1.89,1.04,5.77-.14,6.8,.18,11.94,1.26,16.27h23.39v-42.07c0-26.26-9.29-45.38-37.45-45.38Zm-7.55,67.45c-7.42,1.71-11.27-.57-11.27-5.49,0-6.74,6.97-9.43,16.91-9.43,4.39,0,8.51,.38,8.51,.38,0,2.88-6.26,12.72-14.16,14.55Z"/>
    <rect x="509.14" y="72.16" width="31.03" height="111.37"/>
    <path d="M574.32,140.79c0-7.69,7.14-14.68,20.25-14.68,14.28,0,25.77,6.88,28.35,8.44v-29.73s-9.07-8.74-31.38-8.74c-23.51,0-43.1,13.76-43.1,43.38s17.77,46.04,43.03,46.04c19.73,0,31.5-10.84,31.5-10.84v-28.24c-3.72,2.08-14.09,9.28-28.25,9.28-15,0-20.39-6.9-20.39-14.91Z"/>
    <path d="M685.77,96.09c-17.96,0-24.79,17.02-26.17,19.98-1.38,2.96-2.06,4.66-3.19,4.62-1.96-.06-.59-3.63,.17-5.94,1.44-4.36,4.51-15.8,4.51-29.86,0-9.54-1.29-12.73-1.29-12.73h-26.79v111.37h31.03v-42.53c0-6.93,2.76-19.03,10.58-19.03,6.47,0,8.5,4.8,8.5,14.46v47.1h31.03v-45.24c0-21.94-3.64-42.2-28.38-42.2Z"/>
    <path d="M724.23,98.15v85.38h31.03V98.15s-5.22,3.05-15.48,3.05-15.55-3.05-15.55-3.05Z"/>
    <ellipse cx="739.65" cy="83.69" rx="18.99" ry="12.4"/>
    <path d="M468.07,98.15v85.38h31.03V98.15s-5.22,3.05-15.48,3.05-15.55-3.05-15.55-3.05Z"/>
    <ellipse cx="483.49" cy="83.69" rx="18.99" ry="12.4"/>
    <path d="M955.89,96.07c-15.95,0-23.26,11.96-26.44,18.77-2.1,4.5-1.99,5.82-3.52,5.82-2.22,0-.38-3.61,.62-7.86,1.97-8.37,.47-14.76,.47-14.76h-22.73v109.08h31.03v-34.58c3.67,6.23,10.47,12.88,20.96,12.88,22.44,0,33.73-18.98,33.73-44.63,0-29.07-13.52-44.72-34.11-44.72Zm-8.52,69.09c-7.12,0-12.35-9.02-12.35-21.6s5.38-21.59,12.11-21.59c8.63,0,12.32,7.92,12.32,21.59s-3.39,21.6-12.07,21.6Z"/>
  </g>
  <g>
    <path d="M150.57,100.39c1.55-.19,3.04-.19,4.4,0,.79-1.81,.93-4.94,.22-8.34-1.06-5.06-2.49-8.12-5.44-7.64-2.95,.48-3.06,4.14-2.01,9.2,.59,2.84,1.65,5.28,2.83,6.78Z"/>
    <path d="M125.21,104.4c2.11,.93,3.41,1.54,3.92,1.01,.33-.34,.23-.97-.28-1.8-1.04-1.7-3.19-3.43-5.47-4.4-4.66-2-10.21-1.34-14.49,1.74-1.41,1.04-2.76,2.47-2.56,3.34,.06,.28,.27,.49,.77,.56,1.17,.13,5.24-1.93,9.93-2.21,3.31-.2,6.06,.83,8.17,1.76Z"/>
    <path d="M120.96,106.82c-2.75,.43-4.27,1.34-5.25,2.19-.83,.73-1.35,1.53-1.34,2.1,0,.27,.12,.42,.21,.5,.13,.11,.27,.17,.45,.17,.62,0,2.01-.56,2.01-.56,3.83-1.37,6.36-1.21,8.86-.92,1.38,.16,2.04,.24,2.34-.23,.09-.14,.2-.43-.08-.88-.65-1.05-3.43-2.81-7.22-2.36Z"/>
    <path d="M142.01,115.73c1.87,.92,3.93,.56,4.6-.81,.67-1.36-.3-3.21-2.17-4.13-1.87-.92-3.93-.56-4.6,.81-.67,1.36,.3,3.21,2.17,4.13Z"/>
    <path d="M154.03,105.23c-1.52-.03-2.78,1.64-2.81,3.72-.04,2.08,1.17,3.79,2.69,3.82,1.52,.03,2.78-1.64,2.81-3.72,.04-2.08-1.17-3.79-2.69-3.82Z"/>
    <path d="M52.02,142.78c-.38-.47-1-.33-1.6-.19-.42,.1-.9,.21-1.42,.2-1.12-.02-2.06-.5-2.59-1.31-.69-1.06-.65-2.65,.11-4.46,.1-.24,.22-.52,.36-.81,1.22-2.73,3.26-7.31,.97-11.66-1.72-3.28-4.53-5.32-7.91-5.75-3.24-.41-6.58,.79-8.71,3.14-3.36,3.71-3.88,8.75-3.24,10.53,.24,.65,.61,.83,.88,.87,.57,.08,1.42-.34,1.95-1.76,.04-.1,.09-.26,.15-.46,.24-.75,.68-2.16,1.39-3.28,.87-1.36,2.22-2.29,3.81-2.63,1.62-.35,3.27-.04,4.65,.87,2.35,1.54,3.26,4.42,2.25,7.18-.52,1.42-1.36,4.14-1.18,6.38,.38,4.53,3.16,6.34,5.66,6.54,2.43,.09,4.13-1.27,4.56-2.27,.25-.59,.04-.95-.1-1.1Z"/>
    <path d="M192.35,134.5c-.09-.33-.7-2.53-1.52-5.19-.83-2.66-1.69-4.53-1.69-4.53,3.32-4.97,3.38-9.42,2.94-11.94-.47-3.12-1.77-5.79-4.39-8.54-2.62-2.75-7.98-5.57-15.51-7.68-.86-.24-3.7-1.02-3.95-1.1-.02-.16-.21-9.32-.38-13.25-.12-2.84-.37-7.28-1.74-11.65-1.64-5.91-4.5-11.09-8.06-14.4,9.84-10.2,15.99-21.44,15.97-31.09-.03-18.54-22.8-24.15-50.87-12.53-.03,.01-5.9,2.5-5.95,2.52-.03-.03-10.75-10.55-10.91-10.69C74.28-23.45-25.76,87.75,6.23,114.76l6.99,5.92c-1.81,4.7-2.53,10.08-1.94,15.87,.75,7.43,4.58,14.56,10.8,20.06,5.9,5.23,13.66,8.53,21.18,8.53,12.45,28.68,40.89,46.28,74.23,47.27,35.77,1.06,65.8-15.72,78.38-45.87,.82-2.12,4.32-11.65,4.32-20.07s-4.78-11.96-7.83-11.96Zm-146.35,22.58c-1.09,.19-2.2,.26-3.31,.23-10.8-.29-22.47-10.02-23.63-21.55-1.28-12.75,5.23-22.56,16.77-24.89,1.38-.28,3.05-.44,4.84-.35,6.46,.35,15.99,5.32,18.16,19.39,1.93,12.47-1.13,25.16-12.82,27.16Zm-12.07-53.83c-7.18,1.4-13.51,5.47-17.38,11.09-2.31-1.93-6.62-5.66-7.38-7.12-6.18-11.73,6.74-34.54,15.77-47.42C47.25,27.96,82.19,3.87,98.36,8.24c2.63,.74,11.34,10.84,11.34,10.84,0,0-16.17,8.97-31.16,21.47-20.2,15.55-35.46,38.16-44.6,62.69Zm113.4,49.07c.23-.1,.4-.37,.37-.63-.03-.33-.33-.57-.65-.53,0,0-16.92,2.51-32.91-3.35,1.74-5.66,6.37-3.62,13.37-3.05,12.62,.75,23.92-1.09,32.28-3.49,7.24-2.08,16.75-6.18,24.14-12,2.49,5.47,3.37,11.5,3.37,11.5,0,0,1.93-.35,3.54,.65,1.52,.94,2.64,2.89,1.88,7.92-1.55,9.41-5.55,17.05-12.28,24.07-4.09,4.4-9.06,8.24-14.74,11.02-3.02,1.59-6.23,2.96-9.63,4.07-25.34,8.28-51.28-.82-59.65-20.36-.67-1.47-1.23-3.01-1.68-4.62-3.56-12.88-.54-28.33,8.92-38.05,0,0,0,0,0,0,.58-.62,1.18-1.35,1.18-2.27,0-.77-.49-1.58-.91-2.15-3.31-4.8-14.77-12.98-12.47-28.8,1.65-11.37,11.59-19.38,20.87-18.9,.78,.04,1.57,.09,2.35,.13,4.02,.24,7.52,.75,10.83,.89,5.53,.24,10.51-.57,16.41-5.48,1.99-1.66,3.58-3.09,6.28-3.55,.28-.05,.99-.3,2.4-.23,1.44,.08,2.81,.47,4.04,1.29,4.73,3.14,5.4,10.76,5.64,16.33,.14,3.18,.52,10.88,.66,13.08,.3,5.05,1.63,5.76,4.31,6.65,1.51,.5,2.91,.87,4.98,1.45,6.26,1.76,9.97,3.54,12.3,5.83,1.39,1.43,2.04,2.95,2.24,4.4,.74,5.38-4.18,12.03-17.19,18.07-14.22,6.6-31.48,8.27-43.41,6.95-.91-.1-4.17-.47-4.18-.47-9.54-1.28-14.98,11.04-9.25,19.49,3.69,5.44,13.74,8.98,23.79,8.99,23.05,0,40.77-9.84,47.36-18.34,.2-.25,.22-.28,.53-.75,.32-.49,.06-.76-.35-.48-5.38,3.68-29.3,18.31-54.88,13.91,0,0-3.11-.51-5.95-1.62-2.26-.88-6.97-3.05-7.55-7.89,20.65,6.39,33.65,.35,33.65,.35Zm-32.7-3.86s0,0,0,0c0,0,0,0,0,.01,0,0,0-.01,0-.02ZM75.14,59.66c7.93-9.16,17.69-17.13,26.44-21.6,.3-.15,.62,.17,.46,.47-.69,1.26-2.03,3.95-2.46,5.99-.07,.32,.28,.56,.55,.37,5.44-3.71,14.9-7.68,23.21-8.19,.36-.02,.53,.44,.25,.65-1.26,.97-2.64,2.31-3.65,3.66-.17,.23-.01,.56,.28,.56,5.83,.04,14.05,2.08,19.4,5.09,.36,.2,.1,.91-.3,.81-8.1-1.86-21.37-3.27-35.15,.09-12.3,3-21.69,7.63-28.54,12.62-.35,.25-.76-.21-.48-.53Z"/>
  </g>
  <g>
    <path d="M350.37,54.04c0,10.99,8.8,19.03,19.96,19.03s19.98-8.01,19.98-19.03V28.83h-10.82v23.94c0,5.93-3.95,9.9-9.19,9.9s-9.19-3.97-9.19-9.9V28.83h-10.82l.07,25.22Z"/>
    <path d="M419.24,38.93h12.9v33.23h10.82V38.93h12.9v-10.12h-36.64v10.12h.02Z"/>
    <path d="M412.25,28.81h-10.82v43.35h10.82V28.81Z"/>
    <path d="M306.67,38.93h12.9v33.23h10.82V38.93h12.9v-10.12h-36.64v10.12h.02Z"/>
    <path d="M249.91,28.81h-10.82v43.35h10.82V28.81Z"/>
    <path d="M300.98,46.96c0-10.99-8.8-19.03-19.98-19.03s-19.98,8.01-19.98,19.03v25.22h10.82v-23.94c0-5.93,3.97-9.9,9.19-9.9s9.19,3.97,9.19,9.9v23.94h10.82l-.04-25.22Z"/>
  </g>
</svg>