<?xml version="1.0" encoding="UTF-8"?>
<svg id="Layer_2" data-name="Layer 2" xmlns="http://www.w3.org/2000/svg" viewBox="0 0 41 41">
  <g id="Layer_1-2" data-name="Layer 1">
    <circle cx="20.5" cy="20.5" r="20.5" style="fill: #e85a4f;"/>
    <path d="M29.5,9.5H11.5c-1.11,0-2,.89-2,2V29.5c0,1.1,.89,2,2,2H29.5c1.1,0,2-.9,2-2V11.5c0-1.11-.9-2-2-2Zm-13.05,18h-2.95v-9.49h2.95v9.49Zm-1.51-10.85c-.95,0-1.72-.77-1.72-1.72s.77-1.72,1.72-1.72,1.72,.77,1.72,1.72-.77,1.72-1.72,1.72Zm12.55,10.85h-2.95v-4.62c0-1.1-.02-2.52-1.53-2.52s-1.77,1.2-1.77,2.44v4.7h-2.95v-9.49h2.83v1.3h.04c.39-.75,1.36-1.53,2.79-1.53,2.99,0,3.54,1.97,3.54,4.52v5.21Z" style="fill: #252323;"/>
  </g>
</svg>