<?xml version="1.0" encoding="UTF-8"?>
<svg id="Layer_2" data-name="Layer 2" xmlns="http://www.w3.org/2000/svg" viewBox="0 0 28.14 41.68">
  <g id="Layer_1-2" data-name="Layer 1">
    <path d="M5.01,41.68c-.95,0-1.85-.13-2.71-.39-.86-.26-1.62-.7-2.3-1.31l1.24-1.52c.49,.43,1.05,.72,1.68,.87,.63,.15,1.25,.23,1.86,.23,.77,0,1.5-.2,2.21-.6,.71-.4,1.29-.95,1.75-1.65,.46-.7,.69-1.5,.69-2.39V9.66h2.3v25.17c0,1.32-.33,2.5-.99,3.54-.66,1.04-1.5,1.85-2.53,2.43-1.03,.58-2.09,.87-3.2,.87ZM9.43,4.23V0h2.3V4.23h-2.3Z" style="fill: #e85a4f;"/>
    <path d="M19.08,36.57c-1.9,0-3.67-.32-5.29-.97-1.62-.64-3.05-1.62-4.28-2.94l1.06-1.61c1.32,1.26,2.65,2.17,4,2.74,1.35,.57,2.82,.85,4.42,.85,2.05,0,3.72-.43,4.99-1.28,1.27-.85,1.91-2.04,1.91-3.57,0-1.04-.3-1.84-.9-2.41-.6-.57-1.46-1.02-2.58-1.38s-2.48-.73-4.07-1.12c-1.63-.43-3-.87-4.12-1.33-1.12-.46-1.96-1.05-2.51-1.79-.55-.73-.83-1.73-.83-2.98,0-1.56,.39-2.85,1.17-3.87,.78-1.02,1.84-1.79,3.17-2.29,1.33-.5,2.81-.76,4.44-.76,1.87,0,3.5,.31,4.9,.92,1.39,.61,2.46,1.43,3.2,2.44l-1.24,1.47c-.77-.98-1.76-1.71-2.99-2.19-1.23-.47-2.58-.71-4.05-.71-1.1,0-2.15,.15-3.13,.46-.98,.31-1.77,.8-2.37,1.49-.6,.69-.9,1.61-.9,2.77,0,.92,.22,1.64,.67,2.15,.45,.52,1.11,.94,2,1.26,.89,.32,1.99,.66,3.31,1.03,1.87,.46,3.48,.93,4.83,1.42,1.35,.49,2.39,1.12,3.13,1.9,.74,.78,1.1,1.87,1.1,3.28,0,2.17-.83,3.88-2.48,5.13-1.66,1.25-3.85,1.88-6.58,1.88Z" style="fill: #e85a4f;"/>
    <line x1="9.51" y1="28.47" x2="25.89" y2="28.47" style="fill: none; stroke: #e85a4f; stroke-miterlimit: 10; stroke-width: 2px;"/>
  </g>
</svg>