
<svg id="Layer_1" data-name="Layer 1" xmlns="http://www.w3.org/2000/svg" viewBox="0 0 1248 480">
  <path d="M1248,480c-416,0-832,0-1248,0C0,320,0,160,0,0c416,0,832,0,1248,0,0,160,0,320,0,480ZM557.56,47.21c7.36,7.45,13.74,13.91,21.15,21.41,6.42-6.66,13.19-13.66,20.96-21.72,19.48,19.82,38.92,39.6,58.92,59.94,14.26-14.5,28.25-28.73,42.48-43.2,1.61,1.51,2.95,2.7,4.22,3.96,15.21,15.18,30.45,30.34,45.56,45.61,2.51,2.54,5.02,3.72,8.7,3.69,26.33-.17,52.67-.04,79-.15,3.24-.01,5.52,.92,7.83,3.26,20.65,20.82,41.48,41.46,62.17,62.24,7.84,7.88,15.47,15.97,23.66,24.44,1.83-1.85,2.86-2.89,3.94-3.99-.79-.98-1.16-1.53-1.62-1.99-29-28.97-57.98-57.97-87.11-86.81-1.52-1.5-4.36-2.33-6.59-2.35-26.33-.16-52.67-.17-79-.02-3.64,.02-6.18-1-8.73-3.61-17-17.37-34.16-34.58-52.17-52.75-14.59,14.99-28.72,29.49-43.49,44.67-33.1-33.28-65.73-66.09-98.89-99.44-1.66,1.86-3.11,3.66-4.75,5.29-91.02,90.91-182.11,181.75-272.96,272.84-5.95,5.97-11.66,10.01-20.28,8.52-.73-.13-1.54,.25-2.42,.41v102.23c4.38,1.2,3.32-1.99,3.33-3.99,.03-29.6,.01-59.21,0-88.81,0-1.94,0-3.88,0-5.85h58.82v21c2.32,0,4.15,.21,5.93-.04,4.67-.68,5.87,1.25,5.79,5.81-.27,16.66-.15,33.33-.02,49.99,.01,1.44,1.15,2.87,1.77,4.3,.5-1.39,1.41-2.79,1.42-4.18,.1-17.5,.07-35,.07-52.49,0-2.1,0-4.2,0-6.44-4.16-.23-7.58-.42-11.57-.64v-21.61h-41.15c78.25-78.66,157-157.82,236.45-237.68,6.04,6.29,12.13,12.62,18.46,19.23,6.36-6.67,12.65-13.26,20.1-21.08Zm-40.3,392.71c0,12.16-.04,24.12,.08,36.07,0,.92,1.23,1.82,1.88,2.73,.53-1.02,1.51-2.03,1.53-3.06,.13-7.33,.07-14.66,.07-21.99,0-3.41,0-6.83,0-10.62,2.5,0,4.14,0,5.78,0,182.62,0,365.24,.01,547.86-.11,4.58,0,5.6,1.44,5.46,5.7-.31,8.99-.14,17.99-.02,26.99,.01,1.04,.99,2.06,1.52,3.09,.57-.99,1.57-1.94,1.64-2.96,.22-3.15,.09-6.33,.09-9.49,0-8.77,0-17.54,0-26.81h-7.07c-97.48,0-194.96,0-292.43,0-17.16,0-34.33-.09-51.49,.07-3.59,.03-5.07-.83-4.93-4.71,.27-7.66,.28-15.33,0-22.99-.15-4,1.5-4.73,5.02-4.57,21.54,.99,42.9,3.53,63.3,10.62,13.91,4.83,27.84,6.45,42.49,6.37,65.98-.37,131.97-.16,197.95-.16q7.73,0,8.88,7.62c.02,.16-.05,.4,.04,.49,.59,.61,1.21,1.19,1.82,1.77,.46-.57,1.3-1.12,1.32-1.7,.12-3.74,.06-7.49,.06-11.51h-7.26c-73.32,0-146.63,0-219.95-.03-2.46,0-5.12,.01-7.36-.84-19.09-7.23-38.77-12.05-59.02-14.32-10-1.12-20.09-1.4-30.68-2.1v35.7h-18.19c-.49-5.97,.83-12.52-5.26-16.39-6.24-3.97-11.69-1.85-16.58,2.54-7.46-6.17-11.53-6.17-19.73-.22-8.06-5.9-11.14-5.9-19.96,0-7.73-5.88-10.28-5.88-19.96-.03-7.46-5.91-11.21-5.91-19.51,.03-8.57-5.93-11.12-5.93-19.99,0-7.71-5.92-10.22-5.92-19.99,0-7.17-5.96-11.27-5.96-19.7,.17-4.65-4.71-10.05-6.22-16.11-2.64-6.45,3.81-4.79,10.66-5.33,16.47-2.36,.31-4.12,.54-6.26,.81Zm555.81,20.54c-.26-.4-.53-.81-.79-1.21H527.69c1.57,1.68,2.22,2.92,3.19,3.28,1.18,.43,2.63,.13,3.96,.13,177.46,0,354.91,0,532.37,0,1.17,0,2.43,.27,3.47-.1,.93-.33,1.61-1.38,2.39-2.11Zm57.38-173.19h-12.8c-.21,4.11-.4,7.67-.61,11.82h-20.15v28.54h-14.11v64.54h-28.07c0,13.43-.04,26.23,.08,39.03,0,.93,1.18,1.84,1.81,2.76,.48-1.06,1.36-2.12,1.37-3.18,.11-9.83,.05-19.66,.08-29.49,0-1.75,.16-3.5,.26-5.68h28.08v-64.68h14.53v-28.86h20.3v-11.33h12.58c.13-1.7,.49-3.03,.29-4.26-.81-4.92,1.62-5.81,5.93-5.65,7.99,.29,15.99,.08,23.99,.08h16.29c0,2.68,0,4.64,0,6.6,0,61.62,.01,123.23,.02,184.85,0,1.5-.17,3.03,.12,4.48,.14,.71,1.13,1.26,1.73,1.88,.56-.66,1.38-1.23,1.62-1.99,.29-.91,.08-1.98,.08-2.98,0-63.65,0-127.29,0-190.94,0-1.74-.15-3.49-.23-5.16h-52.62c-.18,3.08-.33,5.87-.55,9.61Zm112.25-95.92c0,2.61,0,4.89,0,7.17,0,84.64,0,169.28,0,253.93,0,1.83-.12,3.69,.14,5.48,.1,.7,1.13,1.26,1.73,1.88,.49-.7,1.22-1.34,1.43-2.12,.25-.93,.08-1.98,.08-2.98,0-87.14,0-174.29,0-261.43v-5.15h-97.83v81.67c4.39,.76,3.26-2.41,3.27-4.36,.06-22.83,.14-45.66-.05-68.48-.04-4.38,.88-6.03,5.72-5.98,26.66,.25,53.32,.12,79.98,.13,1.62,0,3.24,.14,5.53,.24ZM170.7,479.02c.64-.21,1.28-.43,1.92-.64v-96.63h-42v-44.48c-11.71,3.35-21.2-2.16-30.99-6.9-.29,3.07-.48,5.15-.72,7.77h-12.11v29.87c-9.2-4.68-17.67-8.99-26.67-13.57,0,5.16-.17,9.32,.06,13.47,.17,3.14-1.07,4.17-4.05,3.97-2.59-.17-5.19-.04-8.15-.04,0,2.51,.18,4.33-.03,6.11-1.1,9.29,2.84,19.1-2.84,27.93-.06,.09,.09,.31,.22,.66h6.23v-31.55h12.39v-14.53c9.24,4.69,17.71,8.99,26.9,13.65v-32.76h11.67c.36-1.93,.62-3.29,.72-3.82,7.98,1.71,15.61,3.35,23.93,5.13v43.05h42.28c0,2.55,0,4.5,0,6.46,0,27.32-.02,54.63,.05,81.95,0,1.63,.78,3.26,1.2,4.9Zm347.47-250.58c.53,.31,1.06,.61,1.59,.92,.63-1.08,1.96-2.3,1.78-3.23-1.22-6.35,1.69-9.99,7.25-12.27,.82-.34,1.75-1.24,1.98-2.06,2.23-7.77,4.32-15.58,6.67-24.18h-14.44v-12.2c-3.58-.18-6.67-.33-10.24-.51-1.68-17.55-3.34-34.88-5-52.21l-.52,.04c-1.69,17.34-3.37,34.68-5.08,52.19-3.61,.18-6.69,.33-10.01,.49-.08,1.81-.19,3.28-.21,4.75-.11,8.33,1.12,7.58-7.89,7.62-1.95,.01-3.91,0-6.51,0,2.31,8.38,4.35,16.07,6.61,23.69,.32,1.09,1.55,2.27,2.63,2.7,5.39,2.13,7.61,5.81,6.78,11.61-.14,1,1.28,2.23,1.97,3.36,.47-.25,.94-.51,1.4-.76,0-2.15-.27-4.35,.06-6.45,.69-4.45-.97-7.19-5.1-8.92-1.75-.73-3.98-2.03-4.53-3.59-2.01-5.75-3.4-11.71-5.12-17.95h49.8c.32,4.47-1.01,6.69-5.6,6.28-3.47-.31-6.99-.06-10.49-.06-7.16,0-14.33-.08-21.49,.08-1.16,.03-2.29,1.1-3.43,1.68,1.19,.52,2.36,1.42,3.57,1.49,3.49,.2,6.99,.07,10.49,.07,8.11,0,16.21,0,24.36,0,.22,4.92-1.36,6.99-6.04,6.72-5.81-.34-11.66-.19-17.49,.01-1.27,.04-2.51,1.21-3.76,1.85,1.22,.48,2.42,1.35,3.65,1.37,6.06,.14,12.13,.07,18.2,.07l1.27,1.07c-10.3,2.82-6.7,10.23-7.12,16.31Zm400.81-10.52c0,6.16,0,11.63,0,17.1,0,13.66,.04,27.32-.07,40.98-.01,1.24-1.01,2.47-1.55,3.7-1.15-.91-2.45-1.69-3.4-2.77-.6-.69-.68-1.85-1-2.79-2.59-7.78-5.17-15.57-7.76-23.35-.85,10.96-.91,21.72-.75,32.48,.02,1.08,1.36,2.13,2.09,3.2,.57-.26,1.15-.52,1.72-.78v-12.06q5.37,10.23,14.14,8.92c0-1.7,0-3.49,0-5.27,0-17.16,.08-34.32-.06-51.48-.03-3.5,1.09-4.77,4.57-4.54,3.58,.24,7.18,.05,10.88,.05,.19-3.84,.34-6.9,.48-9.83h37.81v9.96h17.88c0,2.73,0,4.72,0,6.7,0,45.32-.02,90.63,.07,135.95,0,1.51,1.02,3.03,1.56,4.54,.58-1.5,1.2-2.99,1.72-4.51,.15-.45,.05-.99,.05-1.49,0-44.3-.01-88.59-.02-132.89,0-3.77,0-7.55,0-11.8-2.45,0-4.24,.01-6.03,0-3.33-.03-7.58,1.14-9.72-.48-2-1.51-1.75-5.99-2.54-9.38h-44.17c-.25,3.45-.47,6.51-.71,9.85h-15.2Zm-458.69,57.26h-46.66c-.24,2.46-.44,4.54-.7,7.19h-12v48.86h-15.15c0,15.87-.03,31.17,.08,46.46,0,.8,1.11,1.59,1.7,2.39,.52-1.04,1.48-2.07,1.49-3.11,.11-11.33,.07-22.65,.07-33.98,0-2.59,0-5.18,0-8.2h15.79v-48.96h11.67c.24-2.65,.45-4.9,.7-7.71,12.51,0,24.79-.05,37.06,.11,.75,0,1.63,1.57,2.18,2.57,1.21,2.2,1.73,5.06,3.46,6.64,3.25,2.97,4.23,6.21,4.21,10.51-.15,31.81-.11,63.63,0,95.44,0,1.47,1.1,2.94,1.69,4.41,.65-1.43,1.85-2.85,1.85-4.29,.11-33.15,.13-66.29-.02-99.44,0-2.05-1-4.62-2.44-6.03-3.58-3.52-6.66-6.98-4.98-12.85Zm169.87,65.74c0,2.46,0,4.27,0,6.09,0,21.16,0,42.32,0,63.48,0,1.33-.18,2.72,.16,3.97,.18,.66,1.22,1.3,1.98,1.49,.36,.09,1.25-.87,1.42-1.48,.26-.93,.11-1.98,.11-2.98,0-23.33,0-46.65-.01-69.98,0-1.42-.2-2.85-.3-4.2-1.91-.23-3.36-.4-4.72-.57-4.32-14.48-14.12-21.65-29.64-21.87-16.92-.24-26.63,6.44-31.59,21.82-1.5,.25-3.07,.52-4.87,.82,0,23.76,0,47.24,0,70.72,0,.33-.08,.75,.09,.98,.44,.59,.99,1.09,1.49,1.62,.58-.62,1.5-1.17,1.66-1.89,.28-1.27,.11-2.65,.11-3.98,0-19.49,0-38.99,0-58.48,0-1.77,0-3.54,0-5.55h64.1Zm97.28-149.84h5.65c17.67,0,35.33,.17,52.99-.12,4.75-.08,5.81,1.45,5.75,5.92-.23,18.66-.13,37.33-.04,55.99,0,1.62,.58,4.5,1.31,4.64,3.38,.66,2.59,3.02,2.6,5.02,.06,8.67-.02,17.33,.1,26,.01,1.08,.91,2.14,1.4,3.22,.62-1.08,1.78-2.16,1.79-3.25,.14-10.33,.11-20.66,.03-31,0-1.04-.53-2.94-.97-2.99-4.04-.44-2.92-3.44-2.93-5.7-.06-18.5-.03-37-.03-55.49,0-1.75,0-3.5,0-5.09h-71.19c0,3.45-.16,6.45,.04,9.43,.21,3.02-.89,4.22-3.97,4.1-4.27-.17-8.56-.04-13.41-.04v6.52c0,33.83-.04,67.66,.09,101.49,0,2.07,1.26,4.14,1.94,6.21,.48-2.06,1.36-4.13,1.36-6.19,.09-33.16,.14-66.33-.03-99.49-.02-4.23,1.26-5.58,5.37-5.25,3.89,.32,7.83,.07,12.13,.07v-14Zm-259.63,46.21c2.6,0,4.4,0,6.2,0,18.32,0,36.64,0,54.95,0q6.85,0,6.87,6.62c0,55.28,0,110.57,0,165.85,0,1.5-.09,3.01,.12,4.49,.09,.63,.84,1.17,1.29,1.75,.62-.58,1.53-1.05,1.79-1.76,.32-.89,.12-1.97,.12-2.97,0-57.45,0-114.9,0-172.35,0-1.59-.13-3.17-.2-4.72h-74.55v41.5l1.64,.58c.6-1.44,1.7-2.87,1.71-4.31,.14-11.3,.08-22.6,.08-34.68Zm580.74,130.23h15.54v-26.54c3.2-.25,5.94-.46,9.14-.71v-56.87c3.56-.23,6.62-.43,10.08-.66v-12.83c2.13-.39,3.85-.7,5.99-1.08v-13.78h14.45v14.43h12.72c2.35,3.66-1.2,8.74,4.11,12.21v-15.78c-3.5,0-6.66-.12-9.8,.04-2.78,.14-3.93-.87-3.79-3.73,.18-3.58,.04-7.18,.04-10.74h-21.57v14.07c-2.2,.3-3.78,.52-5.49,.76-.06,1.29-.14,2.27-.15,3.26q-.16,9.58-9.21,10.48c-.28,.03-.52,.34-1.43,.98v55.83c-3.25,.16-5.85,.28-9.12,.44v26.84h-14.85c-.37,1.94-.64,3.37-.94,4.99-3.28,.16-6.36,.32-9.95,.5,0,6.04-.07,11.67,.07,17.29,.02,.87,1,1.71,1.54,2.57,.65-.9,1.83-1.78,1.87-2.7,.2-4.43,.09-8.87,.09-13.51,3.76-.2,6.85-.36,9.95-.53,.22-1.62,.4-2.92,.71-5.19Zm-120.42-52.61h-17.7v-6.97c5.22,0,10.03,.08,14.83-.08,.82-.03,1.6-1.07,2.4-1.65-.8-.6-1.55-1.66-2.39-1.73-2.81-.23-5.67,.06-8.48-.16-2.76-.21-6.71,1.71-7.13-3.44-.93,.12-2.67,.18-2.68,.37-.32,3.92-3.19,3.08-5.58,3.11-3.16,.03-6.34-.16-9.48,.12-1.12,.1-2.14,1.28-3.21,1.96,.25,.57,.5,1.15,.75,1.72h16.81v6.87h-17.08c-.13,.77-.27,1.54-.4,2.31,5.12,3.59,11.97-.17,17.35,2.07q.88,6.4-5.11,6.41c-3.33,0-6.67-.07-9.99,.11-.69,.04-1.33,1.02-2,1.56,.67,.54,1.32,1.5,2.02,1.54,3.16,.18,6.33,.1,9.49,.11,6.57,.02,6.82,.33,5.22,7.29-2.01,0-4.14,0-6.27,0-2.17,0-4.36-.22-6.49,.08-1.47,.2-2.85,1.12-4.27,1.71,.19,.63,.39,1.26,.58,1.89h16.83v7.03h-16.94c0,1.16-.07,2.64,0,2.64,5.63,.56,11.27,.99,16.61,1.42,1.89,2.4-.9,6.72,3.89,8.41,.24-3.57,.4-5.99,.59-8.9,5,0,9.64,.13,14.25-.09,1.06-.05,2.07-1.29,3.1-1.98-1.02-.52-2.02-1.47-3.05-1.5-4.76-.16-9.52-.07-14.27-.07v-7.1h17.19c0-1.2,.06-2.4,0-2.4-5.75-.66-11.51-1.24-17.04-1.79-1.54-5.07-.1-7.29,5.13-6.7,2.96,.33,6,.19,8.98-.02,1.05-.07,2.03-1,3.05-1.53-.99-.57-1.95-1.59-2.96-1.62-4.76-.17-9.53-.08-14.37-.08v-7.03c3.44,0,6.63,.34,9.69-.1,2.65-.39,6.75,2.26,8.11-3.79ZM180.48,393.03v25.55h33.6c0,2.64,0,4.46,0,6.28,0,16.83-.03,33.66,.08,50.48,0,1.13,1.07,2.25,1.65,3.38,.62-1.14,1.75-2.28,1.76-3.42,.14-11.49,.09-22.98,.09-34.48,0-8.45,0-16.9,0-25.89h-33.5v-18.31h22.01v-29.11h31.01v-18.5c3.61,0,6.75,.09,9.87-.07,.75-.04,1.45-.89,2.17-1.37-.73-.65-1.45-1.84-2.21-1.87-4.43-.18-8.86-.09-13.82-.09v18.48h-30.72v28.94h-21.99Zm545.35-35.74c2.09,12.93,4.15,25.87,6.32,38.79,.11,.67,1.2,1.18,1.83,1.77,.59-.79,1.74-1.62,1.68-2.36-.21-2.47-.91-4.89-1.3-7.35-.85-5.38-1.63-10.77-2.44-16.15,.47-.22,.95-.44,1.42-.66,.9,1.17,1.68,2.47,2.72,3.5,18.96,18.7,41.47,27.15,68.12,23.23,17.49-2.57,32.91-10.2,47.43-19.91,1.4-.94,2.88-1.76,5.11-3.11,0,13.23-.05,25.36,.07,37.48,.01,1.18,1.03,2.35,1.58,3.53,.56-1.16,1.6-2.31,1.61-3.47,.11-14.15,.07-28.3,.03-42.45,0-.55-.33-1.09-.31-1.02-10.23,5.93-19.92,12.51-30.4,17.43-26.03,12.21-51.99,13.09-77-3.14-10.46-6.79-19.01-15.54-26.48-26.1Zm-408.93,61.59h91.1c0,18.29,0,36.1,0,53.91,0,1.33-.18,2.71,.1,3.98,.16,.73,1.06,1.29,1.62,1.93,.59-.65,1.52-1.23,1.7-1.98,.29-1.27,.13-2.65,.13-3.98,0-16.66,0-33.32,0-49.98v-7.5h-97.96c-.12,.91-.27,1.54-.27,2.18-.02,19.15-.02,38.3-.02,57.45,0,.67-.19,1.46,.1,1.97,.41,.72,1.18,1.24,1.8,1.84,.56-.67,1.44-1.27,1.6-2.03,.27-1.28,.1-2.65,.1-3.98,0-17.81,0-35.62,0-53.82ZM1.3,415.22v63.34c.55,.17,1.1,.34,1.66,.51,.56-1.51,1.61-3.01,1.62-4.53,.12-16.81,.07-33.63,.09-50.44,0-1.75,.18-3.51,.27-5.25H94.93c0,2.25,0,4.07,0,5.88,0,16.15,0,32.3,0,48.44,0,1.33-.11,2.69,.14,3.98,.11,.58,.98,1.42,1.49,1.42,.55,0,1.45-.8,1.57-1.38,.27-1.28,.18-2.64,.18-3.97,0-17.48,.01-34.96,0-52.44,0-1.78-.15-3.55-.23-5.55H1.3Zm515.96-18.33c0,6.89-.08,13.2,.08,19.5,.02,.94,1.18,1.85,1.81,2.77,.55-.67,1.56-1.33,1.57-2.01,.11-7.93,.07-15.86,.07-23.8h-36.88v11.05h-23.63c0,24.18-.02,47.8,.08,71.42,0,.97,1.14,1.93,1.75,2.89,.59-.97,1.37-1.88,1.7-2.93,.29-.91,.06-1.98,.06-2.98,0-19.82,0-39.64,.01-59.45,0-1.74,.15-3.49,.25-5.73h23.92v-10.73h29.2Zm159.04-89.65v13.78c-2.58,.18-4.36,.31-6.67,.48,0,13.19-.03,26.13,.08,39.07,0,.8,1.13,1.6,1.74,2.4,.53-.85,1.51-1.69,1.52-2.55,.13-6.83,.08-13.66,.08-20.48,0-4.92,0-9.84,0-14.7,2.75-.28,4.68-.48,7.13-.74v-13.39q8.75-1.3,8.75,6.66c0,3.27,0,6.53,0,10.2h17.65v6.29c0,25.48,0,50.97,0,76.45,0,1.5-.08,3.02,.15,4.48,.1,.61,.92,1.11,1.41,1.66,.62-.58,1.53-1.06,1.78-1.78,.32-.89,.1-1.97,.1-2.97,0-27.65,0-55.3-.01-82.95,0-1.45-.16-2.91-.29-4.97h-17.61v-16.94h-15.82Zm202.46-14.13c-.08,1.15-.2,2.12-.2,3.1-.03,18.96-.07,37.93,.02,56.89,0,1.38,.97,2.75,1.48,4.13,.64-1.4,1.82-2.79,1.84-4.19,.13-17.15,.25-34.31-.03-51.46-.07-4.55,1.38-5.57,5.67-5.5,15.48,.25,30.98,.09,46.46,.11,1.59,0,3.17,.18,5.14,.3v60.4c.59,.2,1.18,.4,1.77,.6,.6-1.43,1.72-2.85,1.73-4.29,.12-17.49,.08-34.97,.08-52.46v-7.61h-63.97Zm-52.77-17.91h-21.94c0,3.7,0,7.01,0,10.31q0,13.36-13.54,13.36h-19.38c0,27.16,0,53.46,0,79.76,0,.5-.14,1.11,.09,1.47,.39,.61,1.18,1.57,1.53,1.46,.75-.23,1.68-.93,1.88-1.63,.32-1.07,.1-2.31,.1-3.47,0-22.65,0-45.3,0-67.95,0-1.92,0-3.84,0-6.43h32.81c0-6.98-.07-13.29,.05-19.59,.03-1.37,.63-3.88,1.12-3.92,4.11-.3,8.26-.33,12.37-.04,1.22,.09,2.35,1.48,3.52,2.28,.41-1.66,.82-3.33,1.38-5.62ZM147.15,346.05c0,9.53-.06,18.99,.1,28.45,.02,.95,1.37,1.88,2.1,2.82,.51-.23,1.02-.47,1.54-.7v-27.31c2.52-.24,4.45-.42,6.94-.65v-23.39c6.69,1.27,12.69,2.63,18.76,3.47,3.13,.44,3.77,1.94,3.66,4.65-.13,3.45-.03,6.92-.03,10.74,4.03,.2,7.6,.37,11.66,.57,0,2.26,0,4.05,0,5.84,0,11.15-.04,22.31,.07,33.46,.01,1.24,.9,2.47,1.38,3.7,.62-1.26,1.78-2.52,1.79-3.79,.13-13.15,.09-26.3,.05-39.45,0-1.09-.34-2.17-.61-3.76h-10.73c0-4.04,.26-7.56-.13-11-.15-1.31-1.6-3.27-2.76-3.53-8.75-1.92-17.59-3.48-26.98-5.27v24.22c-2.45,.33-4.39,.6-6.81,.93Zm301.74,33.3c0,2.26,0,4.21,0,6.16,0,29.13,0,58.26,0,87.39,0,1.5-.06,3.02,.2,4.47,.1,.52,1.05,1.05,1.7,1.21,.31,.08,1.11-.66,1.2-1.13,.22-1.13,.19-2.31,.19-3.48,0-31.3,.01-62.59,0-93.89,0-1.43-.21-2.86-.3-4.07h-56.67v30.66c.53,.19,1.05,.39,1.58,.58,.54-1.31,1.52-2.61,1.54-3.92,.15-7.94,.07-15.89,.07-23.99h50.48Zm585.42-52.18v-67.17c-4.09-.21-7.51-.39-11.08-.58-.27-2.94-.51-5.5-.74-7.99h-16.6c0,3.8,.13,7.28-.04,10.75-.12,2.37,1.35,5.63-2.83,6.22,.36,1.06,.49,2.84,1.13,3.04,1.44,.46,3.12,.14,5.02,.14,0-3.4,0-6.05,0-8.7q0-8.62,8.77-7.98c.29,.02,.56,.31,1.07,.62,.18,2.27,.37,4.69,.59,7.55,2.04,0,3.87,.22,5.63-.04,4.65-.68,5.88,1.19,5.82,5.77-.26,18.83-.11,37.66-.11,56.49v5.44c3.08,.18,5.52,.32,8.36,.49,.15,2.63,.29,5.05,.43,7.48,1.69,.24,3.13,.44,5.13,.72,0,4.91-.1,9.7,.08,14.49,.04,.97,1.12,1.91,1.71,2.86,.5-.88,1.42-1.76,1.44-2.65,.13-5.98,.07-11.97,.07-18.09-1.83-.43-3.37-.79-4.89-1.15-.21-2.58-.39-4.83-.59-7.21-2.82-.17-5.27-.32-8.36-.51Zm-663.58,31.81v-37.81h-11.8v-27.81h-29.36l-.62,1.56c1.29,.64,2.57,1.81,3.87,1.84,7.41,.18,14.83,.09,22.69,.09v28.17h11.78v37.76c3.19,.16,5.79,.3,8.85,.45,0,5.01-.11,9.65,.09,14.27,.04,.9,1.25,1.75,1.93,2.62,.56-.83,1.58-1.65,1.6-2.5,.14-5.94,.07-11.89,.07-18.08-3.11-.19-5.71-.35-9.09-.55Zm-230.75,34.19v46.17h-34.99c0,12.6-.03,24.58,.06,36.57,0,.91,.86,1.82,1.31,2.73,.65-.91,1.84-1.8,1.87-2.72,.17-6.66,.1-13.32,.1-19.99,0-4.26,0-8.52,0-13.32h35.71v-45.97c5.47,0,10.3,.14,15.11-.1,1.2-.06,2.34-1.38,3.51-2.11-.27-.42-.54-.84-.81-1.26h-21.87Zm97.04,36.64h68.2c.18-.58,.35-1.17,.53-1.75-1.47-.54-2.94-1.55-4.41-1.55-21.32-.1-42.64-.08-63.96-.05-1.26,0-2.53,.27-4.01,.44,0,16.54-.04,32.68,.09,48.83,0,1.1,1.24,2.18,1.9,3.28l1.67-.73v-48.47Zm611.59-138.8v6.5c0,20.83,0,41.66,0,62.49,0,1.33-.15,2.7,.11,3.98,.12,.57,1.06,1.31,1.65,1.34,.52,.02,1.38-.77,1.55-1.35,.27-.92,.11-1.98,.11-2.98,0-22.99,0-45.99,0-68.98,0-1.46-.15-2.91-.24-4.47h-35.6c0,3.9-.14,7.4,.09,10.87,.06,.93,1.22,1.8,1.87,2.69,.55-.85,1.48-1.67,1.56-2.57,.22-2.41,.08-4.85,.08-7.51h28.82Zm-642.83,16.22c0,15.56-.04,30.68,.08,45.8,.01,1.3,1.14,2.58,1.74,3.88,.5-1.38,1.41-2.75,1.42-4.14,.11-12.16,.06-24.31,.06-36.47,0-1.76,0-3.52,0-5.75,9.42,0,18.06,.18,26.69-.08,4.01-.12,5.61,.86,5.4,5.22-.37,7.72-.1,15.47-.1,23.59,1.55-.33,3-.49,3-.66,.11-10.4,.1-20.79,.1-31.39h-38.39Zm-134.44,84.92c14.59,0,28.87,.14,43.15-.09,4-.06,5.14,1.2,5.06,5.09-.23,10.31-.14,20.63,0,30.94,.02,1.3,1.07,2.59,1.65,3.88,.5-.2,1-.4,1.51-.6v-42.18h-55.35v19.38c1.07-.05,2.55-.02,2.56-.14,.54-5.18,.94-10.37,1.43-16.29Zm764.58-133.01c.93-.4,1.38-.77,1.83-.77,16.82-.06,33.63-.05,50.45-.14,2.77-.01,3.31,1.41,3.29,3.76-.07,6.83-.11,13.66,.06,20.48,.03,1.34,1.08,2.65,1.66,3.97,.49-.2,.98-.39,1.46-.59v-30.56h-62.36c0,7.69-.07,14.99,.08,22.28,.02,1.02,1.06,2.03,1.63,3.04,.63-1.08,1.77-2.15,1.81-3.25,.18-6.12,.09-12.25,.09-18.22Zm177.11,109.15c.52-.33,1.03-.66,1.55-.99v-85.51c-9.72-1.37-11.38-.98-11.98,2.88,2.74,.21,5.47,.43,8.57,.67,0,2.16,0,3.96,0,5.76,0,16.13,0,32.25,0,48.38,0,8.31-.07,16.63,.1,24.94,.03,1.3,1.15,2.58,1.77,3.88Zm-358.02-4.96c.54-.29,1.08-.57,1.61-.86v-55.18h-31.8c0,3.02-.18,5.82,.07,8.58,.13,1.38,1.02,2.7,1.57,4.04,.55-1.33,1.11-2.66,1.66-3.99,.72-1.76,1.35-5.01,2.15-5.05,7.55-.39,15.14-.23,23.05-.23,0,2.45,0,4.09,0,5.73,0,14.15-.06,28.31,.06,42.46,.01,1.51,1.05,3.01,1.62,4.51Zm385.71,36.61c.7-5.04-2.65-3.57-4.51-3.57-26.98-.09-53.97-.06-80.95-.06-.5,0-1.08-.16-1.48,.04-1.14,.57-2.2,1.28-3.29,1.94,1.01,.55,1.97,1.27,3.05,1.58,.92,.27,1.98,.07,2.98,.07,23,0,45.99,0,68.99,0,4.98,0,9.96,0,15.21,0Zm-719.63-20.96c-.89,4.1-.48,8.8-2.52,10.42-5.43,4.31-5.16,9.63-4.83,15.26,.08,1.36,1.1,2.65,1.69,3.98,.54-1.35,1.33-2.66,1.58-4.06,.53-3.03-.28-6.98,1.37-8.98,3.2-3.88,6.85-7.12,5.32-13.28,7.75,0,14.73,.34,21.66-.11,5.6-.36,9.95,.96,13.52,5.46,1.18,1.49,3.47,2.85,5.32,2.94,7.3,.33,14.63,.2,21.95,.06,1.04-.02,2.06-1,3.09-1.53-1.06-.67-2.09-1.9-3.17-1.93-6.15-.19-12.33,.2-18.45-.23-2.51-.18-5.04-1.69-7.32-2.99-2.49-1.42-4.65-4.64-7.07-4.76-10.76-.53-21.56-.23-32.12-.23Zm653.96-91.44c.24-8.47-2.1-15.56-8.92-20.62-5.4-4.01-11.42-4.54-17.36-1.38-8.62,4.59-11.05,12.63-11.6,22h37.88Zm195.28-54.47c-1.27,3.83,.16,4.81,3.47,4.78,14.28-.12,28.56-.06,42.85-.07,6.11,0,12.22,0,18.45,0v-4.71h-64.77Zm-1.08-8.61c.46,.49,.91,.99,1.37,1.48h64.46v-4.68c-20.97,0-41.6-.05-62.22,.14-1.21,.01-2.41,2-3.61,3.06Zm65.93-14.32h-65c-.71,3.01-.39,4.66,3.13,4.64,20.15-.12,40.31-.08,60.46-.12,.44,0,.88-.34,1.4-.56v-3.97Zm-220.3,165.84c-2.17,0-3.8,0-5.42,0-18.8,0-37.59-.04-56.39,.08-1.65,0-3.29,1.01-4.93,1.56,1.59,.65,3.17,1.84,4.76,1.85,17.3,.13,34.6,.08,51.9,.08h6.37c0,2.61-.21,4.59,.08,6.5,.18,1.2,1.1,2.3,1.68,3.44,.65-1.07,1.77-2.1,1.86-3.22,.26-3.13,.09-6.29,.09-10.29Zm-370.51-6.62v46.51c.47,.24,.94,.48,1.41,.72,.71-1.11,1.98-2.19,2.04-3.33,.23-4.99,.1-9.99,.1-14.99,0-8.27,0-16.55,0-25.26h24.93c.24-.43,.48-.86,.71-1.29-.96-.79-1.9-2.23-2.87-2.25-8.63-.18-17.27-.1-26.33-.1Zm351.19,40.82c13.81,0,27.62,.05,41.43-.08,1.31-.01,2.6-1.08,3.91-1.66-1.36-.52-2.71-1.5-4.07-1.5-27.46-.09-54.92-.09-82.37,0-1.32,0-2.63,1.08-3.95,1.66,1.37,.52,2.75,1.49,4.12,1.5,13.64,.11,27.29,.07,40.93,.07Zm-729.52-13.49h-32.69c0,6.52-.11,12.66,.09,18.78,.04,1.25,1.25,2.47,1.92,3.7,.52-1.18,1.44-2.35,1.48-3.54,.17-5.08,.07-10.17,.07-15.44h25.7c0,5.52-.09,10.8,.09,16.07,.03,.97,1.18,1.91,1.82,2.86,.51-.87,1.44-1.74,1.45-2.62,.13-6.47,.07-12.95,.07-19.81Zm320.74-121.88c-12.79,0-25.21-.04-37.63,.07-1.17,.01-2.33,1.02-3.5,1.57,1.15,.54,2.3,1.54,3.46,1.56,9.81,.12,19.62,.26,29.42-.02,4.07-.12,5.11,1.34,5,5.15-.24,7.81-.15,15.63,.02,23.43,.03,1.22,1.2,2.41,1.84,3.61,.47-.23,.93-.45,1.4-.68v-34.7Zm352.32,109.48v31.51c.6,.2,1.2,.4,1.81,.6,.61-1.4,1.73-2.79,1.75-4.19,.14-13.31,.09-26.61,.07-39.92,0-.97-.21-1.93-.47-4.13-3.92,8.99-7.37,16.73-14.67,21.86-.66,.46-.32,2.34-.45,3.56,.45,.14,.9,.27,1.35,.41,3.27-2.99,6.54-5.98,10.62-9.7Zm259.8,85.62h47.75c.19-.64,.38-1.28,.57-1.92-1.45-.6-2.89-1.7-4.34-1.71-14.8-.13-29.61-.08-44.41-.05-.93,0-1.86,.29-3.11,.49,0,3.55-.1,6.86,.08,10.15,.04,.65,1.16,1.23,1.78,1.85,.56-.64,1.53-1.24,1.6-1.93,.21-2.09,.08-4.22,.08-6.89Zm-582.25-89.13c0-8.48,.09-16.96-.09-25.44-.03-1.42-1.21-2.82-1.86-4.23-.54,1.34-1.53,2.68-1.54,4.03-.11,17.13-.11,34.25,0,51.38,0,1.34,1.02,2.67,1.57,4,.64-1.43,1.8-2.86,1.83-4.3,.18-8.48,.09-16.96,.09-25.44Zm223.03-44.79c.2-.58,.4-1.16,.61-1.74-1.3-.6-2.59-1.71-3.89-1.72-17.12-.12-34.24-.11-51.35,0-1.17,0-2.33,1.09-3.49,1.67,1.29,.6,2.57,1.7,3.86,1.71,10.97,.14,21.94,.08,32.9,.09,7.12,0,14.24,0,21.36,0Zm-58.59,37.44c.35,.4,.7,.81,1.04,1.21h57.57c.22-.39,.44-.79,.67-1.18-.99-.73-1.97-2.09-2.96-2.1-17.76-.12-35.52-.11-53.27,.02-1.02,0-2.03,1.33-3.05,2.04Zm59.24-58.56c-.19-.62-.38-1.24-.57-1.86-18.62,0-37.23-.02-55.85,.07-.81,0-1.61,1.07-2.42,1.64,.97,.6,1.95,1.73,2.92,1.73,17.48,.11,34.96,.11,52.44,0,1.16,0,2.32-1.04,3.48-1.6Zm-.68,30.96l.65-1.84c-1.39-.62-2.77-1.77-4.16-1.78-16.94-.12-33.87-.12-50.81,0-1.27,0-2.53,1.16-3.8,1.78,1.3,.61,2.6,1.74,3.91,1.75,12.95,.13,25.91,.08,38.86,.08,5.12,0,10.23,0,15.35,0Zm135.45-13.95c0-10.82,.06-21.64-.07-32.46-.02-1.36-1.01-2.71-1.55-4.06-.55,1.35-1.56,2.7-1.57,4.05-.1,21.47-.1,42.95,0,64.42,0,1.35,1.01,2.69,1.55,4.03,.55-1.34,1.55-2.67,1.57-4.02,.13-10.65,.07-21.31,.07-31.96Zm-96.79,52.6c.1,1.51,.25,2.61,.25,3.72,0,8.32-.08,16.63,.03,24.94,.01,1,1.01,1.98,1.54,2.97,.62-.9,1.77-1.8,1.78-2.71,.11-14.59,.08-29.17,.08-44.41-.8,.87-1.21,1.15-1.38,1.54-3.19,7.38-6.64,14.54-13.52,19.39-.73,.51-.6,2.24-.87,3.41,.47,.27,.94,.55,1.41,.82,3.38-3.06,6.75-6.11,10.69-9.67Zm40.67-.26c0,10.15-.05,19.43,.06,28.71,.01,1.05,.89,2.09,1.36,3.14,.66-1.05,1.86-2.08,1.9-3.15,.2-5.31,.09-10.63,.09-15.95,0-9.19,0-18.38,0-27.57-4.32,7.74-7.69,15.69-15.26,20.76-.56,.38-.07,2.32-.07,4.89,4.39-3.99,7.77-7.06,11.91-10.82ZM88.59,466.56c.17-.57,.34-1.15,.51-1.72-1.4-.46-2.8-1.31-4.2-1.32-14.61-.1-29.23-.1-43.84,.01-1.34,.01-2.68,1.04-4.02,1.59,1.3,.57,2.6,1.62,3.9,1.63,14.45,.12,28.89,.08,43.34,.06,1.44,0,2.87-.17,4.31-.26Zm813.51-95.15c-4.9,6-10.12,12.28-15.15,18.71-.58,.74-.08,2.34-.08,4.96,4.53-4.13,7.95-7.25,11.98-10.92,0,10.16-.05,19.46,.07,28.76,.01,1.04,.95,2.07,1.46,3.1,.57-.97,1.64-1.93,1.65-2.91,.11-14.29,.07-28.58,.07-41.7Zm-317.91,9.72c0-8.81,.06-17.62-.07-26.43-.02-1.2-1-2.38-1.53-3.57-.58,1.14-1.66,2.28-1.67,3.42-.11,17.45-.11,34.91,0,52.36,0,1.2,.99,2.4,1.52,3.61,.59-1.15,1.67-2.3,1.68-3.46,.14-8.64,.08-17.29,.08-25.93Zm16.12-.29c0-8.64,.08-17.29-.08-25.93-.02-1.26-1.17-2.5-1.8-3.76-.48,1.23-1.37,2.46-1.37,3.7-.09,17.29-.1,34.58,.02,51.87,0,1.26,1.15,2.51,1.76,3.77,.49-1.24,1.4-2.47,1.42-3.71,.13-8.64,.07-17.29,.06-25.93Zm174.49-205.49h-19.59v8.61h19.59v-8.61Zm35.68,189.75c8.64,0,17.27,.06,25.91-.07,1.2-.02,2.39-.96,3.58-1.48-1.09-.63-2.18-1.81-3.28-1.82-17.26-.12-34.53-.11-51.79,0-1.14,0-2.27,1.15-3.41,1.76,1.19,.53,2.38,1.51,3.59,1.53,8.47,.13,16.94,.07,25.41,.07ZM62.88,429.92c7.65,0,15.3,.06,22.94-.08,.99-.02,1.96-1.05,2.94-1.62-.88-.49-1.75-1.39-2.63-1.4-15.46-.08-30.92-.08-46.38,0-.9,0-1.79,.9-2.69,1.38,.96,.57,1.91,1.61,2.89,1.63,7.64,.14,15.29,.08,22.94,.08Zm25.79,17.8c.04-.72,.08-1.43,.12-2.15-16.56-1.05-33.18-.24-49.77-.38-.76,0-1.53,.94-2.3,1.45,.13,.36,.27,.72,.4,1.08h51.54Zm1117.47-188.66c-.44,.51-.88,1.01-1.33,1.52,1.22,1.08,2.41,3.05,3.66,3.09,8.78,.27,17.57,.14,26.64,.14v-4.75h-28.98Zm29.06,154.01h-29.36v4.53h29.36v-4.53Zm-29.63-7.23h29.52v-4.46h-29.31c-.07,1.5-.13,2.75-.21,4.46Zm.46-15.96c-.37,.38-.73,.75-1.1,1.13,1.07,1.21,2.1,3.44,3.21,3.47,8.92,.29,17.85,.16,26.93,.16v-4.76h-29.03Zm-.07-65.61c-1.02,3.34-.53,4.89,2.95,4.82,8.3-.17,16.61-.07,24.91-.11,.45,0,.91-.3,1.65-.57-.19-1.4-.38-2.78-.57-4.14h-28.94Zm-.16-37.74h29.39v-4.28h-29.65c.09,1.58,.17,2.83,.25,4.28Zm.02,60.86v4.6h29.35v-4.6h-29.35Zm29.31-11.16h-29.34c-.31,.49-.62,.98-.92,1.47,1.24,1.02,2.45,2.88,3.71,2.91,8.76,.26,17.53,.14,26.55,.14v-4.52Zm-29.29-61.32h29.3v-4.33h-29.65c.13,1.65,.23,2.89,.35,4.33Zm-731.6,35.36c-.1,.4-.21,.81-.31,1.21,.73,.43,1.45,1.23,2.18,1.24,12.28,.07,24.57,.06,36.86-.05,.73,0,1.46-1.03,3.26-2.4h-41.98Zm-.42-20.59c.59,.8,1.07,2.04,1.56,2.04,13.17,.2,26.34,.33,39.5,.03,0-.69-.01-1.38-.02-2.08h-41.04Zm40.94,53.88c.1-.4,.19-.81,.29-1.21-.57-.41-1.14-1.17-1.71-1.18-12.5-.08-25-.1-37.49,0-.7,0-1.39,1.08-2.98,2.4h41.9Zm-40.64-94.1h41.03c-2.67-2.46-34.92-3.12-41.03,0Zm41.42,9.05h-41.97c3.28,3.08,38.37,3.14,41.97,0Zm-299.59,88.19c.44,.02,.88,.05,1.32,.07v-27.56c-.44,0-.88-.01-1.32-.02v27.51Zm298.79-45.06c-6.5-3.13-38.31-2.38-40.71,0h40.71Zm584.55,123h13.2v-4.42h-13.2v4.42Zm13.24-65.5h-13.3c0,1.39-.04,2.51,.03,3.63,.01,.25,.38,.47,.58,.7,14.39,.65,13.71,.56,12.69-4.33Zm35.17,65.5c14.37,.58,14.66,.54,12.76-4.34h-12.76v4.34Zm-48.68-30.83h13.4c1.54-4.91-1.74-4.98-4.46-4.35-3.06,.7-8.61-3.23-8.94,4.35Zm62.65,.09c-.69-1.86-1.1-4.16-1.64-4.2-3.92-.23-7.88-.11-11.8,.23-.37,.03-.54,2.39-.85,3.96h14.29Zm-13.83-34.84c-.89,3.32-.32,4.99,3.09,4.71,2.13-.18,4.3-.15,6.43,0,3.86,.26,4.46-1.45,3.24-4.7h-12.77Zm13.75-26.34c-.62-1.84-.98-4.17-1.49-4.2-3.93-.25-7.9-.17-11.83,.16-.38,.03-.56,2.42-.9,4.04h14.23Zm-14.27-30.7h14.11c-.49-1.71-.78-4.07-1.23-4.11-3.93-.28-7.89-.25-11.82,.05-.41,.03-.65,2.39-1.06,4.06Zm-5.89,30.68c-.41-1.62-.67-4.01-1.08-4.04-3.92-.26-7.88-.22-11.8,.07-.35,.03-.52,2.41-.83,3.96h13.71Zm-.55,87.68h-13.13c.15,7.52,5.61,3.7,8.57,4.38,2.74,.63,6.1,.65,4.56-4.38Zm-.13-61.23h-13.11c.56,7.68,6.26,3.65,9.4,4.47,3.13,.82,5.23-.38,3.71-4.47Zm-12.43-61.68c-1.06,3.36-.6,5.06,2.87,4.86,2.49-.14,5.01,.16,7.47-.14,.93-.11,1.73-1.36,2.59-2.08-.89-.88-1.71-2.42-2.67-2.52-3.28-.32-6.61-.12-10.27-.12Zm13.29,96.39c-1.45-7.72-7.11-3.56-10.52-4.38-3.29-.79-3.82,1.44-2.87,4.38h13.39Zm-461.76-43.84c.25,.59,.5,1.17,.75,1.76h15.27c.18-.52,.37-1.03,.55-1.55-1.43-.59-2.94-1.81-4.29-1.66-4.06,.47-8.9-1.87-12.28,1.45Zm.32-10.79c-.57,4.79,2.95,3.21,4.91,3.25,10.27,.21,10.27,.14,10.89-3.25h-15.81Zm-.57,53.46c.25,.41,.5,.82,.74,1.24,4.44,0,8.88,.08,13.31-.07,.88-.03,1.72-.97,2.58-1.49-.85-.72-1.67-2.02-2.56-2.07-3.79-.23-7.61-.26-11.39,.02-.94,.07-1.79,1.55-2.67,2.38Zm-456.08-73.39c-.39,0-.77,0-1.16,.01v27.38c.39,0,.77-.01,1.16-.02v-27.37Zm510.38-134.53h11.74c.21-.51,.42-1.02,.63-1.52-1.38-.61-2.75-1.7-4.15-1.76-7.75-.36-7.75-.28-8.21,3.28Zm-53.38,173.21l-.87,1.32c.87,.7,1.7,1.94,2.61,1.99,3.8,.23,7.62,.2,11.43,.03,.87-.04,1.69-1,2.54-1.54-.93-.6-1.85-1.68-2.81-1.72-4.29-.19-8.6-.08-12.9-.08Zm56.13-75.62v6.17h6.01v-6.17h-6.01Zm20.73,6.05h6.07v-5.87h-6.07v5.87Zm-14.71-63.85h-6.17v6.14h6.17v-6.14Zm14.72,5.98h6.2v-5.99h-6.2v5.99Zm-21.04,68.63h6.34v-5.74h-6.34v5.74Zm-47.76,99.98c-.08,.25-.15,.5-.23,.75-1.66,0-3.35-.22-4.95,.07-1.19,.21-2.25,1.08-3.37,1.66,1.19,.51,2.35,1.28,3.59,1.48,1.61,.26,3.33,.25,4.95,.03,2.55-.35,5.07-.97,7.6-1.48-2.53-.84-5.05-1.68-7.58-2.51Zm85.27-174.58h-6.07v6.05h6.07v-6.05Zm-86.27,160.52c.08-.26,.17-.52,.25-.78,1.33,0,2.71,.24,3.97-.06,1.51-.36,2.9-1.16,4.35-1.78-1.36-.51-2.69-1.24-4.1-1.49-1.45-.26-3-.23-4.46-.02-2.54,.37-5.05,.99-7.58,1.5,2.52,.87,5.05,1.75,7.57,2.62Zm38.82-102.69v6.15h5.9v-6.15h-5.9Zm-210.64-2.96c-.05,.46-.09,.93-.14,1.39h14.36c.01-.46,.03-.93,.04-1.39h-14.26Zm258.03-31.22h-6.11v5.89h6.11v-5.89Zm-258.75,22.15h15.92c-4.2-2.93-12.66-2.82-15.92,0Zm242.27-22.18v5.89h6.32v-5.89h-6.32Zm-226.16,74.47c-4.8-3.56-13.9-3.1-15.42,0h15.42Zm205.18-68.42h6.34v-5.87h-6.34v5.87Zm-3.9-6.03h-6.12v5.85h6.12v-5.85Zm14.6,40.37h5.75v-6.14h-5.75v6.14Zm37.15-64.08h-5.81v6.14h5.81v-6.14Zm-41.55,40.4v-5.72h-6.15v5.72h6.15Zm10.16,34.52v-6.09h-5.56v6.09h5.56Zm-5.65-74.91v6.04h6.08c-.12-2.32-.21-4.21-.31-6.04h-5.78Zm20.62-10.59v5.82h6.02v-5.82h-6.02Zm6.11,45.35h-6.04v5.49h6.04v-5.49Zm-16.47-45.4v5.77h6.12v-5.77h-6.12Zm6.12,51.04v-5.71h-6.1v5.71h6.1Zm-20.89-45.13v-5.77h-6.16v5.77h6.16Zm-10.26-5.72h-6.09v5.66h6.09v-5.66Zm14.77,34.11v5.89h5.85v-5.89h-5.85Zm31.2,10.93v5.84h5.73v-5.84h-5.73ZM109.19,404.62c-1.93,.94-3.48,1.71-5.04,2.47,1.54,.49,3.07,1.35,4.61,1.36,1.57,0,3.14-.83,4.71-1.29-1.35-.8-2.7-1.6-4.29-2.54Zm332.77-56.42c.13,2.02,.24,3.59,.35,5.23h5.31v-5.23h-5.65Zm-31.68-22.77v5.27h5.32v-5.27h-5.32Zm26.84-5.86c-.13-2.12-.23-3.7-.34-5.57-1.95,.09-3.53,.16-5.24,.25v5.32h5.58Zm5.04,.01h5.28v-5.63c-2,.12-3.58,.22-5.28,.33v5.3Zm304.62-105.6c.12,2.36,.2,4.1,.29,5.78h5.82v-5.78h-6.1Zm5.96,50.99v-5.73h-5.59v5.73h5.59Zm-326.09,88.5c-.16-2.2-.28-3.74-.42-5.56-2,.11-3.56,.19-5.16,.28v5.28h5.58Zm-5.67-56.8h5.63c-.14-1.97-.25-3.52-.38-5.36-2,.12-3.54,.21-5.26,.3v5.05Zm15.95-4.87h-5.71c.15,1.99,.27,3.53,.41,5.33,2.05-.13,3.62-.23,5.31-.33v-5Zm-10.34,39.05c-.11-2.16-.19-3.73-.28-5.35h-5.12v5.35h5.4Zm-.4-11.25v-5.62c-1.96,.12-3.53,.21-5.12,.3v5.32h5.12Zm10.66-16.47h-5.6c.09,1.87,.16,3.43,.24,5.16h5.36v-5.16Zm-26.58,5.03h5.68c-.14-1.94-.26-3.5-.38-5.07h-5.3v5.07ZM20.11,435.82c.42-.05,.85-.1,1.27-.15v-10.55c-.42,.01-.85,.03-1.27,.04v10.66Zm1.5,6.58c-3.27,3.85-2.9,8.81,0,10.49v-10.49Zm138.27,1.54c1.82-1.29,3.05-2.17,4.29-3.04-1.42-.6-2.83-1.62-4.28-1.68-1.28-.05-2.61,.98-3.91,1.53,1.14,.93,2.28,1.87,3.9,3.19Zm-.16-32.11c1.78-1.05,3.12-1.83,4.47-2.62-1.37-.68-2.73-1.88-4.1-1.89-1.37,0-2.74,1.18-4.11,1.84,1.12,.8,2.24,1.6,3.74,2.67Zm-4,49.7c.16,.73,.32,1.46,.48,2.18h7.7c.22-.39,.43-.79,.65-1.18-1.01-.73-2.01-2.03-3.03-2.05-1.92-.04-3.86,.66-5.8,1.05Zm-135.52,8.86c.46-.03,.91-.06,1.37-.09v-10.24c-.46,0-.91,0-1.37-.01v10.34Zm438.03-122.1h-5.49c.12,1.93,.21,3.5,.32,5.14h5.17v-5.14Zm-293.71,70.93c-.38-.43-.75-.86-1.13-1.29-1.81,0-3.67-.25-5.4,.12-.75,.16-1.24,1.59-1.84,2.45,1.84,.34,3.7,1.01,5.52,.91,.99-.06,1.91-1.41,2.86-2.18Zm293.59-88.37v-5.37h-4.92v5.37h4.92Zm-294.2,101.05c.82-4.91-2.74-3.3-4.7-3.27-1.18,.02-2.34,1.24-3.51,1.92,.25,.45,.5,.9,.76,1.35h7.45Zm764.74,16.46v4.4c4.34,1.14,5.83-.17,4.5-4.4h-4.5Zm-277.71-.12c.67,2.03,.8,3.72,1.71,4.63,.53,.53,2.94,.21,3.39-.46,.66-.99,.32-2.64,.42-4.17h-5.51Zm-219.42-105.95c2.15-.14,3.7-.24,5.58-.37-.11-1.94-.2-3.47-.3-5.29-2.06,.14-3.62,.25-5.28,.37v5.29Zm16.12-5.25h-5.62c.11,1.93,.2,3.46,.31,5.27,2.1-.16,3.67-.27,5.31-.39v-4.88Zm-37.34,4.79h5.58c-.09-1.83-.17-3.25-.25-4.75h-5.57c.09,1.86,.16,3.28,.23,4.75Zm119.58-8.99c0-.44,0-.87-.01-1.31h-14.13c0,.44,0,.87,0,1.31h14.14ZM103.95,415.57h10.13c-3.38-3.3-7.68-3.2-10.13,0Zm-11.08-9.57c-3.23,0-5.64-.08-8.04,.06-.59,.03-1.22,.72-1.65,1.26-.15,.19,.14,.94,.43,1.23,1.44,1.38,7.37,.22,9.26-2.54Zm484.36,42.13c-1.72,.08-3.21,.15-4.56,.21-1.1,4.6,.67,5.54,4.56,4.37v-4.58Zm454.74-.02c-1.54,.08-2.96,.16-4.71,.25,.08,1.72,.14,3.11,.2,4.4,3.97,.98,6,.27,4.51-4.65ZM452.9,308.19h5.54c-.11-1.9-.2-3.48-.29-5.06h-5.25v5.06ZM82.23,398.08c2.49,4.56,5.89,2.41,8.43,2.9,.46,.09,1.11-.83,1.67-1.28-.64-.54-1.24-1.49-1.92-1.54-2.38-.19-4.78-.07-8.18-.07Zm767.19,55.45c2.04-.55,3.81-.59,4.85-1.48,.63-.53,.11-2.4,.11-3.95-1.96,.1-3.38,.17-4.97,.25v5.18Zm-98.77-.71c4.54,1.1,5.72-.51,4.34-4.46q-4.64-.23-4.34,4.46Zm79.07,1.05c2.1-.9,3.75-1.27,4.86-2.24,.5-.44-.06-2.1-.15-3.26h-4.71v5.5ZM111.69,349.74h9.63c-3.16-3.46-7.6-3.32-9.63,0Zm9.16,8.28l.15-2.78c-2.74,0-5.47-.06-8.2,.06-.38,.02-1.02,.89-1.01,1.36,0,.46,.68,1.28,1.09,1.29,2.66,.12,5.32,.06,7.98,.06Zm376.19,101.13c-1.37,2.07-2.53,3.05-2.53,4.04,0,.81,1.5,2.38,2.11,2.27,1.07-.18,2.52-1.23,2.78-2.2,.21-.8-1.07-2-2.36-4.12Zm3.08-9.11c-.78-2.03-.98-3.73-1.94-4.59-.54-.49-2.81,0-3.4,.74-.61,.78-.14,2.41-.14,3.85h5.47ZM111.68,363.79c0,.49,0,.98-.01,1.47h9.21c0-.49,0-.98,.01-1.47h-9.21Zm-14.56-15.64c.05,.47,.09,.93,.14,1.4h8.82c-.02-.47-.04-.93-.07-1.4h-8.89Zm.09,14.93c-.06,.73-.12,1.46-.18,2.19h8.97c.04-.6,.07-1.2,.11-1.8-2.97-.13-5.93-.26-8.9-.39Zm455.51,90.17c1.98-.19,3.48-.33,5.17-.49-.19-1.87-.32-3.14-.44-4.42h-4.73v4.91ZM96.86,371.35c2.47,3.55,7.19,3.53,9.32,0h-9.32Zm910.89,81.5h5.04c-.09-1.74-.17-3.12-.24-4.54h-4.79v4.54Zm-98.94,.06h5.33c-.54-1.84-.6-3.58-1.49-4.53-.59-.63-2.39-.12-3.84-.12v4.65Zm-173.22-4.58h-4.73v4.62h4.73v-4.62Zm58.99-.01h-4.32v4.41c4.12,1.19,5.5-.14,4.32-4.41Zm15.65,.19c-1.14,4.22,.29,5.51,4.33,4.18,1.06-4.09-.42-5.33-4.33-4.18Zm-39.85-.14v5.19c1.87-.62,3.6-.73,4.51-1.66,.59-.6-.02-2.38-.09-3.53h-4.42Zm-60.11-.08c.85,2.09,1.17,3.61,2.04,4.7,.36,.46,2.55,.32,2.73-.08,.59-1.33,.65-2.89,.96-4.61h-5.73Zm163.54,4.49v-4.34h-4.3c-1.14,4.18,.31,5.41,4.3,4.34Zm15.42-4.26c-.92,4.39,.65,5.5,4.36,4.17,1.11-4.02-.32-5.31-4.36-4.17Zm-193.43,4.16c.85-3.87-.2-5.53-4.36-4.08q-.31,4.6,4.36,4.08Zm-25.52-4.33c1.05,2.13,1.42,3.78,2.45,4.61,.55,.44,2.76-.17,3.26-.94,.56-.85,.02-2.42-.04-3.67h-5.68Zm277.26-.04c.83,2.06,1.15,3.58,2.01,4.66,.37,.46,2.54,.35,2.73-.05,.61-1.31,.68-2.87,1.01-4.62h-5.75Zm25.17,.13c-4.69-1.09-5.39,.83-4.14,4.43,4.04,1.07,5.16-.52,4.14-4.43Zm15.43,4.75c1.81-.14,3.19-.24,5.41-.41-.78-1.89-1.07-3.48-2-4.47-.51-.55-2.1-.1-3.4-.1v4.98Zm-481.76-19.82c.46,.55,.92,1.11,1.38,1.66,1.38-.09,2.76-.17,4.47-.28-.17-1.79-.3-3.18-.43-4.57-.47-.31-.94-.62-1.4-.93-1.34,1.37-2.69,2.75-4.03,4.12Zm110.24,19.47c1.15-4.52-.55-5.51-4.35-4.26-.97,3.77,.16,5.36,4.35,4.26Zm430.94,0c4.71,1.16,5.12-.98,4.11-4.47-3.86-.86-5.39,.31-4.11,4.47Zm25.61,.14c-1.41-2.3-2.01-3.76-3.05-4.77-.46-.45-1.81,0-2.84,.05v4.72h5.89Zm-480.82,.51c1.84-.56,3.58-.62,4.5-1.52,.6-.59,.01-2.39-.04-3.62h-4.46v5.15Zm-59.27,.37c2.11-.89,3.69-1.18,4.66-2.11,.55-.53,.1-2.1,.1-3.31h-4.76v5.41Zm-26.74-5.43c.44,.5,.88,1,1.33,1.51h4.5c-.13-1.7-.23-3.07-.33-4.45-.45-.33-.9-.65-1.36-.98-1.38,1.31-2.76,2.62-4.14,3.92Zm-31.8,13.58c-.61-.62-1.22-1.24-1.83-1.87l-3.77,2.7c.94,.94,1.87,1.87,2.81,2.81l2.79-3.64Zm12.92-.04c-.43-.43-.86-.85-1.3-1.28-1.39,.12-2.79,.24-4.18,.36-.3,.46-.6,.93-.9,1.39,1.21,1.07,2.41,2.13,3.62,3.2,.92-1.23,1.84-2.45,2.76-3.68Zm-18.19-16.3c-1.1,4.08,.4,5.26,4.44,4.15,.85-3.87-.28-5.44-4.44-4.15Zm11.7-15.43c.99,2.07,1.4,3.67,2.39,4.69,.5,.51,2.08-.02,3.47-.1-.07-1.68-.13-3.05-.2-4.58h-5.67Zm155.48,18.25c-4.43-1.17-5.3,.64-4.38,4.32,3.87,1.03,5.58,.03,4.38-4.32Z" style="fill: #fff;"/>
  <path d="M557.56,47.21c-7.45,7.82-13.74,14.41-20.1,21.08-6.34-6.6-12.43-12.94-18.46-19.23-79.44,79.86-158.2,159.02-236.45,237.68h41.15v21.61c3.99,.22,7.41,.41,11.57,.64,0,2.24,0,4.34,0,6.44,0,17.5,.03,35-.07,52.49,0,1.4-.93,2.79-1.42,4.18-.62-1.43-1.76-2.86-1.77-4.3-.13-16.66-.24-33.33,.02-49.99,.07-4.56-1.12-6.48-5.79-5.81-1.77,.26-3.61,.04-5.93,.04v-21h-58.82c0,1.96,0,3.91,0,5.85,0,29.6,.02,59.21,0,88.81,0,2,1.05,5.19-3.33,3.99v-102.23c.88-.16,1.7-.53,2.42-.41,8.61,1.49,14.32-2.55,20.28-8.52C371.7,187.44,462.79,96.6,553.81,5.69c1.63-1.63,3.09-3.44,4.75-5.29,33.17,33.35,65.79,66.16,98.89,99.44,14.78-15.18,28.9-29.68,43.49-44.67,18.01,18.17,35.17,35.38,52.17,52.75,2.55,2.61,5.09,3.63,8.73,3.61,26.33-.15,52.67-.14,79,.02,2.23,.01,5.07,.85,6.59,2.35,29.13,28.84,58.11,57.84,87.11,86.81,.46,.46,.83,1.01,1.62,1.99-1.09,1.1-2.12,2.14-3.94,3.99-8.19-8.47-15.82-16.56-23.66-24.44-20.69-20.78-41.52-41.42-62.17-62.24-2.32-2.34-4.6-3.27-7.83-3.26-26.33,.11-52.67-.02-79,.15-3.69,.02-6.19-1.16-8.7-3.69-15.11-15.28-30.36-30.43-45.56-45.61-1.27-1.27-2.61-2.46-4.22-3.96-14.23,14.47-28.22,28.7-42.48,43.2-19.99-20.34-39.43-40.12-58.92-59.94-7.77,8.05-14.54,15.06-20.96,21.72-7.4-7.49-13.78-13.95-21.15-21.41Zm-19.5,14.2c6.67-6.84,13.12-13.47,18.42-18.9,7.01,5.96,13.9,11.82,20.22,17.2,5.51-5.37,11.28-11,16.14-15.74-11.3-11.6-22.73-23.34-34.19-35.1-12.04,12.17-24.18,24.44-36.29,36.68,4.8,4.85,9.8,9.9,15.7,15.86Z"/>
  <path d="M517.26,439.91c2.14-.28,3.91-.51,6.26-.81,.54-5.81-1.12-12.66,5.33-16.47,6.06-3.58,11.46-2.06,16.11,2.64,8.43-6.13,12.53-6.13,19.7-.17,9.77-5.91,12.28-5.91,19.99,0,8.86-5.94,11.41-5.94,19.99,0,8.3-5.94,12.05-5.95,19.51-.03,9.68-5.85,12.23-5.85,19.96,.03,8.81-5.91,11.9-5.91,19.96,0,8.2-5.95,12.26-5.95,19.73,.22,4.89-4.39,10.34-6.51,16.58-2.54,6.09,3.87,4.77,10.42,5.26,16.39h18.19v-35.7c10.59,.7,20.68,.97,30.68,2.1,20.25,2.28,39.93,7.09,59.02,14.32,2.24,.85,4.9,.84,7.36,.84,73.32,.04,146.63,.03,219.95,.03h7.26c0,4.02,.06,7.77-.06,11.51-.02,.58-.86,1.14-1.32,1.7-.61-.59-1.23-1.17-1.82-1.77-.09-.09-.01-.32-.04-.49q-1.15-7.62-8.88-7.62c-65.98,0-131.97-.21-197.95,.16-14.65,.08-28.57-1.54-42.49-6.37-20.4-7.09-41.76-9.64-63.3-10.62-3.52-.16-5.17,.57-5.02,4.57,.29,7.65,.28,15.33,0,22.99-.14,3.88,1.34,4.74,4.93,4.71,17.16-.16,34.33-.07,51.49-.07,97.48,0,194.96,0,292.43,0h7.07c0,9.27,0,18.04,0,26.81,0,3.17,.13,6.34-.09,9.49-.07,1.02-1.07,1.98-1.64,2.96-.53-1.03-1.5-2.06-1.52-3.09-.12-9-.29-18,.02-26.99,.14-4.26-.88-5.7-5.46-5.7-182.62,.12-365.24,.11-547.86,.11-1.64,0-3.29,0-5.78,0,0,3.8,0,7.21,0,10.62,0,7.33,.06,14.66-.07,21.99-.02,1.03-1,2.04-1.53,3.06-.66-.91-1.87-1.81-1.88-2.73-.13-11.95-.08-23.91-.08-36.07Zm89.52-.76h15.54c.26-5.19,1.79-10.68-3.7-13.48-2.29-1.17-6.35-1.03-8.57,.28-4.92,2.9-3.91,8.1-3.27,13.2Zm-59.58-.15h15.72c.16-4.87,1.78-10.18-3.38-13.09-2.19-1.24-5.94-1.5-8.19-.47-5.71,2.61-4.27,8.22-4.16,13.56Zm-4.14,.22c-.08-5.53,1.82-11.39-4.36-13.96-2.27-.94-6.03-.49-8.14,.85-4.86,3.07-3.54,8.19-3.18,13.11h15.68Zm59.52,.05c.22-5.44,1.47-10.6-3.87-13.92-3.05-1.9-6.06-1.57-8.83,.58-4.75,3.69-2.7,8.61-2.97,13.34h15.67Zm-19.75-.02c.26-5.43,1.53-11-3.99-13.69-2.3-1.12-6.34-.8-8.6,.54-5.09,3.01-3.21,8.29-2.99,13.15h15.58Zm103.18-.23h15.78c.17-5.34,1.43-10.91-4.19-13.54-2.24-1.05-6-.84-8.19,.38-5.26,2.9-3.25,8.28-3.39,13.17Zm-24.04,.14c.09-5.42,1.72-11.07-4.05-13.73-2.25-1.04-6.05-.75-8.23,.51-5.15,2.97-3.59,8.22-3.2,13.23h15.48Zm-19.8,.29c0-3.01,.1-5.32-.02-7.62-.23-4.48-3.88-7.91-8.08-7.71-4.92,.23-7.55,4.35-7.92,10.73-.36,6.17,3.83,4.39,6.94,4.56,2.78,.15,5.58,.03,9.08,.03Zm39.68-.3c.18-5.61,1.5-11.23-4.27-13.78-2.26-1-6.05-.62-8.22,.67-5.14,3.07-3.2,8.33-3.09,13.11h15.58Z"/>
  <path d="M1073.07,460.45c-.79,.73-1.46,1.78-2.39,2.11-1.04,.37-2.3,.1-3.47,.1-177.46,0-354.91,0-532.37,0-1.33,0-2.78,.3-3.96-.13-.97-.36-1.62-1.6-3.19-3.28h544.59c.26,.4,.53,.81,.79,1.21Z"/>
  <path d="M1130.45,287.27c.21-3.75,.37-6.53,.55-9.61h52.62c.08,1.67,.23,3.42,.23,5.16,.01,63.65,.01,127.29,0,190.94,0,1,.21,2.07-.08,2.98-.24,.76-1.06,1.34-1.62,1.99-.6-.62-1.59-1.17-1.73-1.88-.28-1.45-.12-2.98-.12-4.48,0-61.62-.01-123.23-.02-184.85,0-1.96,0-3.92,0-6.6h-16.29c-8,0-16,.21-23.99-.08-4.32-.16-6.74,.73-5.93,5.65,.2,1.24-.15,2.57-.29,4.26h-12.58v11.33h-20.3v28.86h-14.53v64.68h-28.08c-.1,2.18-.26,3.93-.26,5.68-.02,9.83,.03,19.66-.08,29.49-.01,1.07-.89,2.12-1.37,3.18-.63-.92-1.8-1.83-1.81-2.76-.12-12.8-.08-25.61-.08-39.03h28.07v-64.54h14.11v-28.54h20.15c.21-4.15,.4-7.71,.61-11.82h12.8Z"/>
  <path d="M1242.69,191.35c-2.29-.1-3.91-.24-5.53-.24-26.66-.01-53.32,.12-79.98-.13-4.84-.05-5.76,1.61-5.72,5.98,.18,22.83,.11,45.65,.05,68.48,0,1.95,1.12,5.12-3.27,4.36v-81.67h97.83v5.15c0,87.14,0,174.29,0,261.43,0,1,.18,2.05-.08,2.98-.21,.78-.93,1.42-1.43,2.12-.6-.62-1.63-1.18-1.73-1.88-.27-1.8-.14-3.65-.14-5.48,0-84.64,0-169.28,0-253.93,0-2.28,0-4.56,0-7.17Z"/>
  <path d="M170.7,479.02c-.42-1.63-1.19-3.26-1.2-4.9-.08-27.32-.05-54.63-.05-81.95,0-1.96,0-3.91,0-6.46h-42.28v-43.05c-8.32-1.78-15.95-3.42-23.93-5.13-.1,.52-.36,1.89-.72,3.82h-11.67v32.76c-9.19-4.66-17.67-8.96-26.9-13.65v14.53h-12.39v31.55h-6.23c-.12-.36-.27-.58-.22-.66,5.69-8.82,1.75-18.64,2.84-27.93,.21-1.78,.03-3.6,.03-6.11,2.95,0,5.56-.14,8.15,.04,2.98,.2,4.22-.83,4.05-3.97-.23-4.14-.06-8.31-.06-13.47,9,4.58,17.48,8.89,26.67,13.57v-29.87h12.11c.24-2.63,.44-4.71,.72-7.77,9.8,4.75,19.28,10.25,30.99,6.9v44.48h42v96.63c-.64,.21-1.28,.43-1.92,.64Z"/>
  <path d="M518.17,228.44c.42-6.08-3.18-13.49,7.12-16.31l-1.27-1.07c-6.07,0-12.13,.08-18.2-.07-1.23-.03-2.43-.89-3.65-1.37,1.25-.65,2.49-1.81,3.76-1.85,5.83-.2,11.68-.35,17.49-.01,4.68,.27,6.27-1.79,6.04-6.72-8.15,0-16.25,0-24.36,0-3.5,0-7.01,.13-10.49-.07-1.22-.07-2.38-.97-3.57-1.49,1.14-.59,2.28-1.66,3.43-1.68,7.16-.16,14.33-.08,21.49-.08,3.5,0,7.02-.25,10.49,.06,4.59,.41,5.92-1.81,5.6-6.28h-49.8c1.72,6.24,3.12,12.2,5.12,17.95,.54,1.56,2.78,2.86,4.53,3.59,4.14,1.72,5.79,4.47,5.1,8.92-.33,2.1-.06,4.3-.06,6.45-.47,.25-.94,.51-1.4,.76-.7-1.12-2.12-2.35-1.97-3.36,.83-5.79-1.39-9.48-6.78-11.61-1.09-.43-2.31-1.62-2.63-2.7-2.26-7.63-4.3-15.32-6.61-23.69,2.6,0,4.55,0,6.51,0,9.01-.05,7.78,.7,7.89-7.62,.02-1.47,.13-2.93,.21-4.75,3.31-.16,6.4-.31,10.01-.49,1.7-17.51,3.39-34.85,5.08-52.19l.52-.04c1.66,17.33,3.32,34.67,5,52.21,3.57,.18,6.67,.33,10.24,.51v12.2h14.44c-2.35,8.59-4.44,16.4-6.67,24.18-.24,.82-1.16,1.73-1.98,2.06-5.56,2.27-8.47,5.92-7.25,12.27,.18,.93-1.15,2.14-1.78,3.23-.53-.31-1.06-.61-1.59-.92Zm.83-49.56c-3.98,0-7.78,0-11.59,0s-7.81,0-11.57,0q-1.3,8.91,6.67,8.92c3.32,0,6.64,0,9.96,0,7.9,0,7.96-.08,6.52-8.92Z"/>
  <path d="M918.99,217.93h15.2c.24-3.35,.46-6.41,.71-9.85h44.17c.79,3.39,.54,7.87,2.54,9.38,2.14,1.62,6.39,.45,9.72,.48,1.79,.02,3.58,0,6.03,0,0,4.25,0,8.03,0,11.8,0,44.3,.02,88.59,.02,132.89,0,.5,.1,1.04-.05,1.49-.52,1.52-1.14,3.01-1.72,4.51-.54-1.51-1.56-3.03-1.56-4.54-.08-45.32-.07-90.63-.07-135.95,0-1.98,0-3.97,0-6.7h-17.88v-9.96h-37.81c-.14,2.93-.29,5.99-.48,9.83-3.7,0-7.3,.19-10.88-.05-3.48-.23-4.6,1.04-4.57,4.54,.15,17.16,.06,34.32,.06,51.48,0,1.79,0,3.57,0,5.27q-8.77,1.31-14.14-8.92v12.06c-.57,.26-1.15,.52-1.72,.78-.73-1.07-2.08-2.12-2.09-3.2-.16-10.76-.1-21.52,.75-32.48,2.59,7.78,5.17,15.57,7.76,23.35,.31,.95,.39,2.1,1,2.79,.95,1.09,2.25,1.87,3.4,2.77,.54-1.23,1.54-2.46,1.55-3.7,.11-13.66,.07-27.32,.07-40.98,0-5.47,0-10.94,0-17.1Z"/>
  <path d="M460.3,275.19c-1.67,5.88,1.4,9.33,4.98,12.85,1.44,1.41,2.43,3.98,2.44,6.03,.15,33.15,.13,66.29,.02,99.44,0,1.43-1.21,2.86-1.85,4.29-.59-1.47-1.68-2.94-1.69-4.41-.1-31.81-.14-63.63,0-95.44,.02-4.29-.96-7.53-4.21-10.51-1.73-1.58-2.25-4.43-3.46-6.64-.54-.99-1.43-2.56-2.18-2.57-12.27-.16-24.55-.11-37.06-.11-.26,2.81-.46,5.06-.7,7.71h-11.67v48.96h-15.79c0,3.02,0,5.61,0,8.2,0,11.33,.04,22.65-.07,33.98-.01,1.04-.97,2.07-1.49,3.11-.59-.8-1.7-1.59-1.7-2.39-.1-15.29-.08-30.59-.08-46.46h15.15v-48.86h12c.26-2.64,.46-4.73,.7-7.19h46.66Z"/>
  <path d="M630.17,340.94h-64.1c0,2.01,0,3.78,0,5.55,0,19.49,0,38.99,0,58.48,0,1.33,.17,2.71-.11,3.98-.16,.72-1.08,1.27-1.66,1.89-.51-.53-1.06-1.03-1.49-1.62-.17-.22-.09-.65-.09-.98,0-23.48,0-46.96,0-70.72,1.8-.31,3.37-.57,4.87-.82,4.96-15.38,14.67-22.06,31.59-21.82,15.52,.22,25.32,7.39,29.64,21.87,1.35,.16,2.81,.34,4.72,.57,.1,1.36,.29,2.78,.3,4.2,.02,23.33,.01,46.65,.01,69.98,0,1,.15,2.05-.11,2.98-.17,.61-1.06,1.57-1.42,1.48-.76-.18-1.81-.83-1.98-1.49-.33-1.25-.16-2.64-.16-3.97,0-21.16,0-42.32,0-63.48,0-1.82,0-3.63,0-6.09Zm-6.16-4.14c.27-10.32-12.18-18.99-26.37-18.6-14.34,.39-26.02,8.92-25.21,18.6h51.58Z"/>
  <path d="M727.45,191.09v14c-4.31,0-8.24,.25-12.13-.07-4.11-.34-5.39,1.02-5.37,5.25,.17,33.16,.12,66.33,.03,99.49,0,2.06-.89,4.13-1.36,6.19-.67-2.07-1.93-4.14-1.94-6.21-.12-33.83-.09-67.66-.09-101.49v-6.52c4.85,0,9.13-.13,13.41,.04,3.07,.12,4.17-1.08,3.97-4.1-.2-2.98-.04-5.98-.04-9.43h71.19c0,1.59,0,3.34,0,5.09,0,18.5-.02,37,.03,55.49,0,2.26-1.11,5.26,2.93,5.7,.44,.05,.96,1.94,.97,2.99,.07,10.33,.1,20.67-.03,31-.01,1.09-1.17,2.17-1.79,3.25-.49-1.07-1.38-2.14-1.4-3.22-.12-8.66-.04-17.33-.1-26-.01-2,.78-4.36-2.6-5.02-.73-.14-1.31-3.02-1.31-4.64-.09-18.66-.19-37.33,.04-55.99,.06-4.48-1-6-5.75-5.92-17.66,.29-35.33,.12-52.99,.12h-5.65Z"/>
  <path d="M467.82,237.31c0,12.07,.06,23.38-.08,34.68-.02,1.44-1.12,2.87-1.71,4.31l-1.64-.58v-41.5h74.55c.07,1.55,.2,3.13,.2,4.72,.01,57.45,0,114.9,0,172.35,0,1,.2,2.08-.12,2.97-.26,.71-1.17,1.18-1.79,1.76-.45-.58-1.2-1.12-1.29-1.75-.21-1.47-.12-2.99-.12-4.49,0-55.28,0-110.57,0-165.85q0-6.62-6.87-6.62c-18.32,0-36.64,0-54.95,0-1.8,0-3.6,0-6.2,0Z"/>
  <path d="M1048.57,367.54c-.31,2.27-.49,3.57-.71,5.19-3.09,.16-6.18,.33-9.95,.53,0,4.63,.11,9.08-.09,13.51-.04,.93-1.22,1.8-1.87,2.7-.54-.86-1.51-1.7-1.54-2.57-.14-5.62-.07-11.25-.07-17.29,3.59-.18,6.67-.33,9.95-.5,.3-1.61,.58-3.05,.94-4.99h14.85v-26.84c3.27-.16,5.87-.28,9.12-.44v-55.83c.91-.63,1.15-.95,1.43-.98q9.06-.91,9.21-10.48c.02-.98,.09-1.96,.15-3.26,1.71-.24,3.3-.45,5.49-.76v-14.07h21.57c0,3.56,.14,7.16-.04,10.74-.14,2.87,1.01,3.87,3.79,3.73,3.14-.16,6.3-.04,9.8-.04v15.78c-5.32-3.47-1.76-8.55-4.11-12.21h-12.72v-14.43h-14.45v13.78c-2.15,.39-3.86,.7-5.99,1.08v12.83c-3.47,.23-6.52,.43-10.08,.66v56.87c-3.21,.25-5.94,.46-9.14,.71v26.54h-15.54Z"/>
  <path d="M928.14,314.92c-1.35,6.05-5.46,3.4-8.11,3.79-3.07,.45-6.25,.1-9.69,.1v7.03c4.84,0,9.61-.1,14.37,.08,1,.04,1.97,1.06,2.96,1.62-1.01,.54-2,1.46-3.05,1.53-2.98,.21-6.02,.35-8.98,.02-5.23-.59-6.67,1.63-5.13,6.7,5.53,.55,11.29,1.13,17.04,1.79,.07,0,0,1.21,0,2.4h-17.19v7.1c4.75,0,9.51-.09,14.27,.07,1.03,.04,2.04,.98,3.05,1.5-1.03,.69-2.04,1.93-3.1,1.98-4.62,.22-9.25,.09-14.25,.09-.19,2.91-.36,5.33-.59,8.9-4.79-1.7-2-6.01-3.89-8.41-5.34-.43-10.98-.86-16.61-1.42-.08,0,0-1.49,0-2.64h16.94v-7.03h-16.83c-.19-.63-.39-1.26-.58-1.89,1.42-.6,2.8-1.51,4.27-1.71,2.12-.29,4.32-.08,6.49-.08,2.13,0,4.26,0,6.27,0,1.6-6.95,1.35-7.27-5.22-7.29-3.16,0-6.33,.07-9.49-.11-.7-.04-1.35-1-2.02-1.54,.67-.55,1.31-1.53,2-1.56,3.32-.18,6.66-.1,9.99-.11q5.98-.02,5.11-6.41c-5.38-2.24-12.23,1.52-17.35-2.07,.13-.77,.27-1.54,.4-2.31h17.08v-6.87h-16.81c-.25-.57-.5-1.15-.75-1.72,1.07-.69,2.09-1.86,3.21-1.96,3.14-.28,6.32-.09,9.48-.12,2.39-.02,5.25,.81,5.58-3.11,.02-.2,1.75-.25,2.68-.37,.43,5.15,4.38,3.23,7.13,3.44,2.81,.22,5.67-.07,8.48,.16,.84,.07,1.6,1.12,2.39,1.73-.8,.58-1.58,1.62-2.4,1.65-4.8,.16-9.61,.08-14.83,.08v6.97h17.7Z"/>
  <path d="M180.48,393.03h21.99v-28.94h30.72v-18.48c4.96,0,9.4-.09,13.82,.09,.76,.03,1.47,1.22,2.21,1.87-.72,.48-1.43,1.33-2.17,1.37-3.12,.16-6.26,.07-9.87,.07v18.5h-31.01v29.11h-22.01v18.31h33.5c0,8.99,0,17.44,0,25.89,0,11.49,.05,22.99-.09,34.48-.01,1.15-1.15,2.28-1.76,3.42-.57-1.13-1.64-2.25-1.65-3.38-.11-16.83-.07-33.66-.08-50.48,0-1.82,0-3.64,0-6.28h-33.6v-25.55Z"/>
  <path d="M725.83,357.29c7.47,10.56,16.02,19.31,26.48,26.1,25.01,16.23,50.98,15.35,77,3.14,10.48-4.91,20.17-11.5,30.4-17.43-.02-.07,.31,.47,.31,1.02,.03,14.15,.07,28.3-.03,42.45,0,1.16-1.05,2.31-1.61,3.47-.55-1.18-1.57-2.35-1.58-3.53-.12-12.12-.07-24.25-.07-37.48-2.23,1.35-3.71,2.18-5.11,3.11-14.52,9.72-29.94,17.34-47.43,19.91-26.65,3.92-49.16-4.53-68.12-23.23-1.04-1.03-1.82-2.33-2.72-3.5-.47,.22-.95,.44-1.42,.66,.81,5.39,1.59,10.78,2.44,16.15,.39,2.46,1.1,4.88,1.3,7.35,.06,.73-1.09,1.57-1.68,2.36-.63-.59-1.72-1.1-1.83-1.77-2.18-12.92-4.24-25.86-6.32-38.79Z"/>
  <path d="M316.9,418.89c0,18.21,0,36.01,0,53.82,0,1.33,.17,2.71-.1,3.98-.16,.76-1.04,1.36-1.6,2.03-.62-.6-1.39-1.12-1.8-1.84-.29-.51-.1-1.3-.1-1.97,0-19.15,0-38.3,.02-57.45,0-.64,.15-1.27,.27-2.18h97.96v7.5c0,16.66,0,33.32,0,49.98,0,1.33,.17,2.71-.13,3.98-.17,.75-1.11,1.33-1.7,1.98-.56-.64-1.46-1.21-1.62-1.93-.27-1.28-.1-2.65-.1-3.98,0-17.81,0-35.62,0-53.91h-91.1Z"/>
  <path d="M1.3,415.22H98.07c.09,2,.23,3.78,.23,5.55,.02,17.48,.01,34.96,0,52.44,0,1.33,.09,2.69-.18,3.97-.12,.58-1.02,1.37-1.57,1.38-.52,0-1.38-.83-1.49-1.42-.25-1.29-.14-2.65-.14-3.98,0-16.15,0-32.3,0-48.44,0-1.82,0-3.63,0-5.88H4.94c-.09,1.75-.27,3.5-.27,5.25-.02,16.81,.03,33.63-.09,50.44-.01,1.51-1.06,3.02-1.62,4.53-.55-.17-1.1-.34-1.66-.51v-63.34Z"/>
  <path d="M517.27,396.9h-29.2v10.73h-23.92c-.1,2.24-.25,3.98-.25,5.73-.02,19.82-.01,39.64-.01,59.45,0,1,.23,2.07-.06,2.98-.33,1.05-1.11,1.96-1.7,2.93-.61-.96-1.75-1.92-1.75-2.89-.1-23.62-.08-47.24-.08-71.42h23.63v-11.05h36.88c0,7.94,.04,15.87-.07,23.8,0,.68-1.02,1.34-1.57,2.01-.63-.92-1.79-1.83-1.81-2.77-.16-6.3-.08-12.6-.08-19.5Z"/>
  <path d="M676.31,307.24h15.82v16.94h17.61c.12,2.06,.29,3.51,.29,4.97,.02,27.65,.01,55.3,.01,82.95,0,1,.22,2.08-.1,2.97-.25,.71-1.16,1.19-1.78,1.78-.49-.55-1.32-1.05-1.41-1.66-.23-1.47-.15-2.99-.15-4.48,0-25.48,0-50.97,0-76.45v-6.29h-17.65c0-3.67,0-6.94,0-10.2q0-7.96-8.75-6.66v13.39c-2.46,.25-4.38,.45-7.13,.74,0,4.86,0,9.78,0,14.7,0,6.83,.05,13.66-.08,20.48-.02,.86-.99,1.7-1.52,2.55-.6-.8-1.73-1.59-1.74-2.4-.11-12.94-.08-25.88-.08-39.07,2.31-.16,4.1-.29,6.67-.48v-13.78Z"/>
  <path d="M878.77,293.11h63.97v7.61c0,17.49,.04,34.97-.08,52.46,0,1.43-1.13,2.86-1.73,4.29-.59-.2-1.18-.4-1.77-.6v-60.4c-1.97-.12-3.55-.29-5.14-.3-15.49-.02-30.98,.14-46.46-.11-4.3-.07-5.75,.96-5.67,5.5,.27,17.15,.15,34.31,.03,51.46-.01,1.4-1.2,2.8-1.84,4.19-.52-1.37-1.48-2.75-1.48-4.13-.09-18.96-.04-37.93-.02-56.89,0-.97,.12-1.95,.2-3.1Z"/>
  <path d="M826,275.2c-.56,2.29-.97,3.96-1.38,5.62-1.17-.8-2.3-2.19-3.52-2.28-4.11-.3-8.26-.27-12.37,.04-.48,.04-1.09,2.55-1.12,3.92-.12,6.3-.05,12.61-.05,19.59h-32.81c0,2.59,0,4.51,0,6.43,0,22.65,0,45.3,0,67.95,0,1.17,.22,2.4-.1,3.47-.21,.7-1.14,1.4-1.88,1.63-.34,.1-1.14-.86-1.53-1.46-.23-.36-.09-.97-.09-1.47,0-26.3,0-52.59,0-79.76h19.38q13.54,0,13.54-13.36c0-3.31,0-6.62,0-10.31h21.94Z"/>
  <path d="M147.15,346.05c2.42-.33,4.36-.59,6.81-.93v-24.22c9.4,1.79,18.23,3.35,26.98,5.27,1.17,.26,2.61,2.22,2.76,3.53,.39,3.44,.13,6.95,.13,11h10.73c.27,1.59,.6,2.68,.61,3.76,.04,13.15,.08,26.3-.05,39.45-.01,1.27-1.17,2.53-1.79,3.79-.48-1.23-1.37-2.46-1.38-3.7-.11-11.15-.06-22.31-.07-33.46,0-1.79,0-3.58,0-5.84-4.07-.2-7.64-.37-11.66-.57,0-3.82-.1-7.29,.03-10.74,.1-2.71-.54-4.21-3.66-4.65-6.07-.85-12.07-2.2-18.76-3.47v23.39c-2.49,.23-4.41,.41-6.94,.65v27.31c-.51,.23-1.02,.47-1.54,.7-.73-.94-2.09-1.87-2.1-2.82-.16-9.46-.1-18.92-.1-28.45Z"/>
  <path d="M448.89,379.35h-50.48c0,8.1,.07,16.04-.07,23.99-.02,1.32-1.01,2.62-1.54,3.92-.53-.19-1.05-.39-1.58-.58v-30.66h56.67c.09,1.21,.3,2.64,.3,4.07,.02,31.3,.02,62.59,0,93.89,0,1.16,.02,2.35-.19,3.48-.09,.46-.89,1.2-1.2,1.13-.65-.16-1.61-.7-1.7-1.21-.27-1.45-.2-2.98-.2-4.47,0-29.13,0-58.26,0-87.39,0-1.95,0-3.89,0-6.16Z"/>
  <path d="M1034.3,327.17c3.1,.19,5.54,.34,8.36,.51,.19,2.38,.38,4.62,.59,7.21,1.53,.36,3.07,.72,4.89,1.15,0,6.12,.06,12.1-.07,18.09-.02,.89-.94,1.77-1.44,2.65-.6-.95-1.68-1.89-1.71-2.86-.18-4.78-.08-9.58-.08-14.49-1.99-.28-3.44-.48-5.13-.72-.14-2.43-.28-4.85-.43-7.48-2.84-.17-5.28-.31-8.36-.49v-5.44c0-18.83-.15-37.66,.11-56.49,.06-4.59-1.17-6.45-5.82-5.77-1.76,.26-3.59,.04-5.63,.04-.22-2.86-.41-5.28-.59-7.55-.52-.31-.79-.6-1.07-.62q-8.76-.65-8.77,7.98c0,2.65,0,5.3,0,8.7-1.9,0-3.58,.32-5.02-.14-.64-.2-.77-1.98-1.13-3.04,4.18-.59,2.71-3.85,2.83-6.22,.17-3.46,.04-6.94,.04-10.75h16.6c.23,2.49,.47,5.05,.74,7.99,3.57,.19,6.99,.36,11.08,.58v67.17Z"/>
  <path d="M370.72,358.98c3.38,.21,5.98,.36,9.09,.55,0,6.19,.07,12.14-.07,18.08-.02,.84-1.04,1.67-1.6,2.5-.67-.87-1.89-1.72-1.93-2.62-.2-4.62-.09-9.26-.09-14.27-3.05-.16-5.65-.29-8.85-.45v-37.76h-11.78v-28.17c-7.86,0-15.27,.09-22.69-.09-1.31-.03-2.58-1.2-3.87-1.84l.62-1.56h29.36v27.81h11.8v37.81Z"/>
  <path d="M139.97,393.18h21.87c.27,.42,.54,.84,.81,1.26-1.17,.74-2.31,2.05-3.51,2.11-4.81,.25-9.64,.1-15.11,.1v45.97h-35.71c0,4.8,0,9.06,0,13.32,0,6.66,.06,13.33-.1,19.99-.02,.92-1.22,1.81-1.87,2.72-.46-.91-1.31-1.82-1.31-2.73-.09-11.98-.06-23.97-.06-36.57h34.99v-46.17Z"/>
  <path d="M237,429.82v48.47l-1.67,.73c-.66-1.09-1.9-2.18-1.9-3.28-.12-16.15-.09-32.3-.09-48.83,1.49-.17,2.75-.44,4.01-.44,21.32-.03,42.64-.05,63.96,.05,1.47,0,2.94,1.01,4.41,1.55-.18,.58-.35,1.17-.53,1.75h-68.2Z"/>
  <path d="M848.59,291.02h-28.82c0,2.66,.14,5.1-.08,7.51-.08,.9-1.02,1.72-1.56,2.57-.65-.9-1.81-1.76-1.87-2.69-.23-3.47-.09-6.97-.09-10.87h35.6c.09,1.56,.24,3.02,.24,4.47,.01,22.99,.01,45.99,0,68.98,0,1,.16,2.05-.11,2.98-.17,.59-1.03,1.37-1.55,1.35-.59-.03-1.54-.77-1.65-1.34-.26-1.28-.11-2.65-.11-3.98,0-20.83,0-41.66,0-62.49v-6.5Z"/>
  <path d="M205.76,307.24h38.39c0,10.6,.01,20.99-.1,31.39,0,.17-1.45,.33-3,.66,0-8.11-.26-15.87,.1-23.59,.21-4.36-1.39-5.34-5.4-5.22-8.63,.26-17.27,.08-26.69,.08,0,2.23,0,3.99,0,5.75,0,12.16,.05,24.31-.06,36.47-.01,1.38-.93,2.76-1.42,4.14-.61-1.29-1.73-2.58-1.74-3.88-.12-15.12-.08-30.24-.08-45.8Z"/>
  <path d="M71.32,392.16c-.48,5.92-.89,11.11-1.43,16.29-.01,.12-1.49,.09-2.56,.14v-19.38h55.35v42.18c-.5,.2-1,.4-1.51,.6-.57-1.29-1.63-2.58-1.65-3.88-.14-10.31-.23-20.63,0-30.94,.09-3.89-1.06-5.16-5.06-5.09-14.27,.23-28.55,.09-43.15,.09Z"/>
  <path d="M835.9,259.15c0,5.97,.09,12.1-.09,18.22-.03,1.1-1.18,2.17-1.81,3.25-.57-1.01-1.61-2.02-1.63-3.04-.14-7.3-.08-14.6-.08-22.28h62.36v30.56c-.49,.2-.98,.39-1.46,.59-.58-1.32-1.63-2.63-1.66-3.97-.17-6.82-.13-13.65-.06-20.48,.02-2.35-.52-3.78-3.29-3.76-16.82,.09-33.63,.08-50.45,.14-.45,0-.9,.36-1.83,.77Z"/>
  <path d="M1013.01,368.3c-.62-1.29-1.74-2.57-1.77-3.88-.17-8.31-.1-16.62-.1-24.94,0-16.13,0-32.25,0-48.38,0-1.8,0-3.6,0-5.76-3.1-.24-5.82-.45-8.57-.67,.59-3.87,2.26-4.25,11.98-2.88v85.51c-.52,.33-1.03,.66-1.55,.99Z"/>
  <path d="M654.99,363.33c-.56-1.5-1.6-3-1.62-4.51-.12-14.15-.07-28.31-.06-42.46,0-1.64,0-3.28,0-5.73-7.92,0-15.5-.16-23.05,.23-.8,.04-1.43,3.29-2.15,5.05-.55,1.33-1.1,2.66-1.66,3.99-.55-1.35-1.45-2.66-1.57-4.04-.25-2.76-.07-5.56-.07-8.58h31.8v55.18c-.54,.29-1.08,.57-1.61,.86Z"/>
  <path d="M1040.7,399.95c-5.25,0-10.23,0-15.21,0-23,0-45.99,0-68.99,0-1,0-2.06,.2-2.98-.07-1.08-.31-2.04-1.04-3.05-1.58,1.09-.66,2.15-1.37,3.29-1.94,.4-.2,.98-.04,1.48-.04,26.98,0,53.97-.03,80.95,.06,1.86,0,5.21-1.46,4.51,3.57Z"/>
  <path d="M321.07,378.98c10.56,0,21.36-.3,32.12,.23,2.42,.12,4.58,3.34,7.07,4.76,2.29,1.31,4.82,2.82,7.32,2.99,6.12,.43,12.3,.05,18.45,.23,1.08,.03,2.11,1.26,3.17,1.93-1.03,.53-2.05,1.51-3.09,1.53-7.32,.14-14.65,.27-21.95-.06-1.84-.08-4.14-1.44-5.32-2.94-3.56-4.51-7.92-5.83-13.52-5.46-6.93,.45-13.91,.11-21.66,.11,1.53,6.16-2.12,9.4-5.32,13.28-1.65,2-.84,5.95-1.37,8.98-.25,1.4-1.04,2.71-1.58,4.06-.59-1.33-1.61-2.62-1.69-3.98-.34-5.62-.6-10.95,4.83-15.26,2.04-1.62,1.64-6.31,2.52-10.42Z"/>
  <path d="M975.04,287.54h-37.88c.55-9.37,2.99-17.41,11.6-22,5.94-3.16,11.96-2.63,17.36,1.38,6.81,5.06,9.16,12.15,8.92,20.62Zm-33.75-3.69h29.76c-.49-9.26-6.81-16.47-14.32-16.79-7.7-.33-14.2,6.6-15.45,16.79Z"/>
  <path d="M1170.32,233.08h64.77v4.71c-6.23,0-12.34,0-18.45,0-14.28,0-28.56-.05-42.85,.07-3.31,.03-4.74-.95-3.47-4.78Z"/>
  <path d="M1169.24,224.46c1.2-1.07,2.4-3.05,3.61-3.06,20.63-.19,41.25-.14,62.22-.14v4.68h-64.46c-.46-.49-.91-.99-1.37-1.48Z"/>
  <path d="M1235.17,210.14v3.97c-.52,.22-.96,.56-1.4,.56-20.15,.04-40.31,0-60.46,.12-3.52,.02-3.84-1.63-3.13-4.64h65Z"/>
  <path d="M1014.87,375.98c0,3.99,.17,7.16-.09,10.29-.09,1.12-1.21,2.15-1.86,3.22-.59-1.14-1.5-2.24-1.68-3.44-.28-1.91-.08-3.89-.08-6.5h-6.37c-17.3,0-34.6,.05-51.9-.08-1.59-.01-3.18-1.21-4.76-1.85,1.64-.54,3.29-1.55,4.93-1.56,18.79-.11,37.59-.07,56.39-.08,1.62,0,3.25,0,5.42,0Z"/>
  <path d="M644.36,369.36c9.05,0,17.69-.07,26.33,.1,.97,.02,1.91,1.47,2.87,2.25-.24,.43-.48,.86-.71,1.29h-24.93c0,8.72,0,16.99,0,25.26,0,5,.13,10-.1,14.99-.05,1.14-1.33,2.22-2.04,3.33-.47-.24-.94-.48-1.41-.72v-46.51Z"/>
  <path d="M995.55,410.18c-13.65,0-27.29,.04-40.93-.07-1.38-.01-2.75-.98-4.12-1.5,1.32-.58,2.63-1.65,3.95-1.66,27.46-.1,54.92-.1,82.37,0,1.36,0,2.72,.98,4.07,1.5-1.3,.58-2.6,1.65-3.91,1.66-13.81,.12-27.62,.08-41.43,.07Z"/>
  <path d="M266.04,396.69c0,6.86,.06,13.34-.07,19.81-.02,.88-.95,1.75-1.45,2.62-.63-.95-1.78-1.89-1.82-2.86-.18-5.27-.09-10.56-.09-16.07h-25.7c0,5.27,.1,10.36-.07,15.44-.04,1.2-.96,2.36-1.48,3.54-.67-1.23-1.88-2.45-1.92-3.7-.2-6.12-.09-12.25-.09-18.78h32.69Z"/>
  <path d="M586.78,274.81v34.7c-.47,.23-.93,.45-1.4,.68-.64-1.2-1.81-2.4-1.84-3.61-.17-7.81-.26-15.63-.02-23.43,.12-3.81-.93-5.27-5-5.15-9.8,.28-19.61,.15-29.42,.02-1.16-.01-2.3-1.02-3.46-1.56,1.16-.55,2.33-1.56,3.5-1.57,12.42-.12,24.85-.07,37.63-.07Z"/>
  <path d="M939.1,384.29c-4.08,3.72-7.35,6.71-10.62,9.7-.45-.14-.9-.27-1.35-.41,.13-1.22-.21-3.1,.45-3.56,7.31-5.13,10.76-12.88,14.67-21.86,.26,2.2,.47,3.16,.47,4.13,.02,13.31,.07,26.61-.07,39.92-.01,1.4-1.14,2.79-1.75,4.19-.6-.2-1.2-.4-1.81-.6v-31.51Z"/>
  <path d="M1198.9,469.91c0,2.67,.14,4.79-.08,6.89-.07,.69-1.04,1.29-1.6,1.93-.62-.61-1.74-1.2-1.78-1.85-.18-3.29-.08-6.6-.08-10.15,1.25-.21,2.18-.49,3.11-.49,14.8-.03,29.61-.07,44.41,.05,1.45,.01,2.9,1.12,4.34,1.71-.19,.64-.38,1.28-.57,1.92h-47.75Z"/>
  <path d="M616.66,380.78c0,8.48,.09,16.96-.09,25.44-.03,1.45-1.19,2.87-1.83,4.3-.55-1.33-1.56-2.66-1.57-4-.11-17.13-.11-34.25,0-51.38,0-1.35,1.01-2.69,1.54-4.03,.65,1.41,1.83,2.81,1.86,4.23,.18,8.48,.09,16.96,.09,25.44Z"/>
  <path d="M839.69,336c-7.12,0-14.24,0-21.36,0-10.97,0-21.94,.06-32.9-.09-1.29-.02-2.57-1.12-3.86-1.71,1.16-.58,2.33-1.66,3.49-1.67,17.12-.11,34.24-.11,51.35,0,1.3,0,2.59,1.12,3.89,1.72-.2,.58-.4,1.16-.61,1.74Z"/>
  <path d="M781.1,373.44c1.02-.71,2.03-2.03,3.05-2.04,17.76-.14,35.52-.14,53.27-.02,.99,0,1.97,1.37,2.96,2.1-.22,.39-.44,.79-.67,1.18h-57.57c-.35-.4-.7-.81-1.04-1.21Z"/>
  <path d="M840.34,314.87c-1.16,.56-2.32,1.59-3.48,1.6-17.48,.1-34.96,.1-52.44,0-.98,0-1.95-1.13-2.92-1.73,.81-.57,1.61-1.64,2.42-1.64,18.62-.09,37.23-.07,55.85-.07,.19,.62,.38,1.24,.57,1.86Z"/>
  <path d="M839.66,345.83c-5.12,0-10.23,0-15.35,0-12.95,0-25.91,.05-38.86-.08-1.31-.01-2.61-1.14-3.91-1.75,1.27-.62,2.53-1.77,3.8-1.78,16.94-.12,33.87-.13,50.81,0,1.39,.01,2.77,1.16,4.16,1.78l-.65,1.84Z"/>
  <path d="M975.11,331.89c0,10.65,.06,21.31-.07,31.96-.02,1.35-1.02,2.68-1.57,4.02-.54-1.34-1.55-2.68-1.55-4.03-.1-21.47-.1-42.95,0-64.42,0-1.35,1.02-2.7,1.57-4.05,.54,1.35,1.53,2.7,1.55,4.06,.13,10.82,.07,21.64,.07,32.46Z"/>
  <path d="M878.32,384.48c-3.93,3.56-7.31,6.61-10.69,9.67-.47-.27-.94-.55-1.41-.82,.27-1.17,.14-2.9,.87-3.41,6.88-4.85,10.32-12.01,13.52-19.39,.17-.39,.58-.67,1.38-1.54,0,15.24,.03,29.83-.08,44.41,0,.91-1.16,1.81-1.78,2.71-.54-.99-1.53-1.98-1.54-2.97-.11-8.31-.03-16.63-.03-24.94,0-1.11-.14-2.21-.25-3.72Z"/>
  <path d="M918.99,384.23c-4.14,3.76-7.52,6.83-11.91,10.82,0-2.58-.49-4.52,.07-4.89,7.57-5.07,10.94-13.02,15.26-20.76,0,9.19,0,18.38,0,27.57,0,5.32,.11,10.64-.09,15.95-.04,1.07-1.24,2.1-1.9,3.15-.48-1.05-1.35-2.09-1.36-3.14-.11-9.28-.06-18.55-.06-28.71Z"/>
  <path d="M88.59,466.56c-1.44,.09-2.87,.25-4.31,.26-14.45,.02-28.89,.05-43.34-.06-1.31-.01-2.6-1.06-3.9-1.63,1.34-.55,2.67-1.58,4.02-1.59,14.61-.12,29.23-.11,43.84-.01,1.4,0,2.8,.86,4.2,1.32-.17,.57-.34,1.15-.51,1.72Z"/>
  <path d="M902.1,371.41c0,13.12,.03,27.41-.07,41.7,0,.97-1.07,1.94-1.65,2.91-.51-1.03-1.45-2.06-1.46-3.1-.12-9.3-.07-18.59-.07-28.76-4.02,3.67-7.45,6.79-11.98,10.92,0-2.62-.5-4.22,.08-4.96,5.03-6.43,10.25-12.71,15.15-18.71Z"/>
  <path d="M584.19,381.12c0,8.64,.07,17.29-.08,25.93-.02,1.16-1.1,2.31-1.68,3.46-.53-1.2-1.51-2.4-1.52-3.61-.1-17.45-.1-34.91,0-52.36,0-1.14,1.09-2.28,1.67-3.42,.54,1.19,1.52,2.38,1.53,3.57,.13,8.81,.07,17.62,.07,26.43Z"/>
  <path d="M600.31,380.84c0,8.64,.06,17.29-.07,25.93-.02,1.24-.92,2.48-1.42,3.71-.61-1.26-1.75-2.51-1.76-3.77-.12-17.29-.11-34.58-.02-51.87,0-1.24,.9-2.47,1.37-3.7,.63,1.25,1.78,2.49,1.8,3.76,.16,8.64,.08,17.29,.08,25.93Z"/>
  <path d="M774.8,175.34v8.61h-19.59v-8.61h19.59Z"/>
  <path d="M810.48,365.09c-8.47,0-16.94,.06-25.41-.07-1.2-.02-2.39-1-3.59-1.53,1.14-.61,2.27-1.76,3.41-1.76,17.26-.11,34.53-.11,51.79,0,1.1,0,2.18,1.18,3.28,1.82-1.19,.52-2.38,1.46-3.58,1.48-8.63,.13-17.27,.07-25.91,.07Z"/>
  <path d="M62.88,429.92c-7.65,0-15.3,.06-22.94-.08-.97-.02-1.92-1.06-2.89-1.63,.9-.48,1.79-1.37,2.69-1.38,15.46-.09,30.92-.09,46.38,0,.88,0,1.76,.91,2.63,1.4-.98,.56-1.95,1.6-2.94,1.62-7.64,.14-15.29,.08-22.94,.07Z"/>
  <path d="M88.67,447.72H37.14c-.13-.36-.27-.72-.4-1.08,.77-.5,1.53-1.45,2.3-1.45,16.59,.14,33.21-.67,49.77,.38-.04,.72-.08,1.43-.12,2.15Z"/>
  <path d="M1206.15,259.06h28.98v4.75c-9.07,0-17.86,.13-26.64-.14-1.25-.04-2.44-2.01-3.66-3.09,.44-.51,.88-1.01,1.33-1.52Z"/>
  <path d="M1235.21,413.07v4.53h-29.36v-4.53h29.36Z"/>
  <path d="M1205.58,405.84c.08-1.71,.14-2.96,.21-4.46h29.31v4.46h-29.52Z"/>
  <path d="M1206.04,389.88h29.03v4.76c-9.08,0-18.01,.13-26.93-.16-1.1-.04-2.14-2.26-3.21-3.47,.37-.38,.73-.75,1.1-1.13Z"/>
  <path d="M1205.97,324.27h28.94c.19,1.37,.38,2.74,.57,4.14-.74,.27-1.2,.57-1.65,.57-8.3,.04-16.61-.06-24.91,.11-3.47,.07-3.97-1.48-2.95-4.82Z"/>
  <path d="M1205.8,286.53c-.09-1.45-.16-2.7-.25-4.28h29.65v4.28h-29.39Z"/>
  <path d="M1205.82,347.39h29.35v4.6h-29.35v-4.6Z"/>
  <path d="M1235.13,336.23v4.52c-9.02,0-17.79,.12-26.55-.14-1.27-.04-2.48-1.9-3.71-2.91,.31-.49,.62-.98,.92-1.47h29.34Z"/>
  <path d="M1205.83,274.91c-.11-1.43-.21-2.67-.35-4.33h29.65v4.33h-29.3Z"/>
  <path d="M474.24,310.28h41.98c-1.8,1.37-2.53,2.4-3.26,2.4-12.28,.11-24.57,.11-36.86,.05-.73,0-1.45-.81-2.18-1.24,.1-.4,.21-.81,.31-1.21Z"/>
  <path d="M473.81,289.68h41.04c0,.69,.01,1.38,.02,2.08-13.16,.3-26.33,.16-39.5-.03-.49,0-.97-1.24-1.56-2.04Z"/>
  <path d="M514.75,343.56h-41.9c1.59-1.32,2.28-2.39,2.98-2.4,12.5-.09,25-.07,37.49,0,.57,0,1.14,.77,1.71,1.18-.1,.4-.19,.81-.29,1.21Z"/>
  <path d="M474.11,249.47c6.11-3.12,38.37-2.46,41.03,0h-41.03Z"/>
  <path d="M515.53,258.52c-3.6,3.14-38.69,3.08-41.97,0h41.97Z"/>
  <path d="M215.94,346.71v-27.51c.44,0,.88,.01,1.32,.02v27.56c-.44-.02-.88-.05-1.32-.07Z"/>
  <path d="M514.73,301.64h-40.71c2.39-2.38,34.2-3.13,40.71,0Z"/>
  <path d="M1099.28,424.65v-4.42h13.2v4.42h-13.2Z"/>
  <path d="M1112.52,359.15c1.02,4.89,1.7,4.98-12.69,4.33-.2-.23-.56-.45-.58-.7-.06-1.12-.03-2.24-.03-3.63h13.3Z"/>
  <path d="M1147.69,424.65v-4.34h12.76c1.9,4.88,1.61,4.92-12.76,4.34Z"/>
  <path d="M1099.01,393.82c.33-7.58,5.88-3.65,8.94-4.35,2.72-.62,6-.55,4.46,4.35h-13.4Z"/>
  <path d="M1161.66,393.91h-14.29c.32-1.57,.48-3.93,.85-3.96,3.92-.35,7.87-.47,11.8-.23,.54,.03,.94,2.34,1.64,4.2Z"/>
  <path d="M1147.83,359.06h12.77c1.22,3.24,.62,4.96-3.24,4.7-2.14-.15-4.3-.17-6.43,0-3.41,.28-3.98-1.39-3.09-4.71Z"/>
  <path d="M1161.58,332.72h-14.23c.34-1.62,.53-4.01,.9-4.04,3.93-.33,7.9-.41,11.83-.16,.51,.03,.87,2.36,1.49,4.2Z"/>
  <path d="M1147.31,302.02c.41-1.66,.65-4.02,1.06-4.06,3.93-.3,7.89-.33,11.82-.05,.46,.03,.75,2.4,1.23,4.11h-14.11Z"/>
  <path d="M1141.42,332.69h-13.71c.31-1.56,.48-3.94,.83-3.96,3.92-.29,7.88-.33,11.8-.07,.41,.03,.67,2.41,1.08,4.04Z"/>
  <path d="M1140.87,420.38c1.54,5.03-1.82,5.01-4.56,4.38-2.96-.68-8.42,3.14-8.57-4.38h13.13Z"/>
  <path d="M1140.74,359.15c1.52,4.09-.58,5.29-3.71,4.47-3.14-.82-8.84,3.21-9.4-4.47h13.11Z"/>
  <path d="M1128.3,297.47c3.66,0,6.99-.2,10.27,.12,.96,.09,1.78,1.64,2.67,2.52-.86,.73-1.65,1.97-2.59,2.08-2.46,.3-4.99,0-7.47,.14-3.47,.19-3.94-1.5-2.87-4.86Z"/>
  <path d="M1141.59,393.85h-13.39c-.95-2.94-.42-5.17,2.87-4.38,3.42,.82,9.07-3.34,10.52,4.38Z"/>
  <path d="M679.83,350.02c3.38-3.32,8.23-.98,12.28-1.45,1.35-.16,2.85,1.07,4.29,1.66-.18,.52-.37,1.03-.55,1.55h-15.27c-.25-.59-.5-1.17-.75-1.76Z"/>
  <path d="M680.15,339.23h15.81c-.62,3.39-.62,3.47-10.89,3.25-1.96-.04-5.49,1.54-4.91-3.25Z"/>
  <path d="M679.58,392.69c.89-.83,1.73-2.31,2.67-2.38,3.78-.28,7.6-.25,11.39-.02,.89,.05,1.71,1.35,2.56,2.07-.86,.52-1.7,1.46-2.58,1.49-4.43,.15-8.87,.07-13.31,.07-.25-.41-.5-.82-.74-1.24Z"/>
  <path d="M223.5,319.3v27.37c-.39,0-.77,.01-1.16,.02v-27.38c.39,0,.77,0,1.16-.01Z"/>
  <path d="M733.88,184.77c.46-3.56,.47-3.65,8.21-3.28,1.41,.07,2.77,1.15,4.15,1.76-.21,.51-.42,1.02-.63,1.52h-11.74Z"/>
  <path d="M680.5,357.98c4.3,0,8.61-.11,12.9,.08,.96,.04,1.87,1.12,2.81,1.72-.85,.54-1.67,1.5-2.54,1.54-3.81,.17-7.63,.2-11.43-.03-.91-.05-1.74-1.3-2.61-1.99l.87-1.32Z"/>
  <path d="M736.63,282.37h6.01v6.17h-6.01v-6.17Z"/>
  <path d="M757.36,288.42v-5.87h6.07v5.87h-6.07Z"/>
  <path d="M742.65,224.57v6.14h-6.17v-6.14h6.17Z"/>
  <path d="M757.37,230.54v-5.99h6.2v5.99h-6.2Z"/>
  <path d="M736.33,299.18v-5.74h6.34v5.74h-6.34Z"/>
  <path d="M688.57,399.16c2.53,.84,5.05,1.68,7.58,2.51-2.53,.51-5.04,1.13-7.6,1.48-1.62,.22-3.34,.23-4.95-.03-1.24-.2-2.4-.96-3.59-1.48,1.12-.58,2.19-1.45,3.37-1.66,1.6-.29,3.3-.07,4.95-.07,.08-.25,.15-.5,.23-.75Z"/>
  <path d="M773.84,224.57v6.05h-6.07v-6.05h6.07Z"/>
  <path d="M687.57,385.09c-2.52-.87-5.05-1.75-7.57-2.62,2.52-.51,5.03-1.13,7.58-1.5,1.46-.21,3.02-.24,4.46,.02,1.41,.25,2.74,.97,4.1,1.49-1.44,.61-2.84,1.42-4.35,1.78-1.26,.3-2.64,.06-3.97,.06-.08,.26-.17,.52-.25,.78Z"/>
  <path d="M726.39,282.41h5.9v6.15h-5.9v-6.15Z"/>
  <path d="M515.75,279.44h14.26c-.01,.46-.03,.93-.04,1.39h-14.36c.05-.46,.09-.93,.14-1.39Z"/>
  <path d="M773.78,248.23v5.89h-6.11v-5.89h6.11Z"/>
  <path d="M515.03,270.37c3.26-2.82,11.72-2.93,15.92,0h-15.92Z"/>
  <path d="M757.3,248.2h6.32v5.89h-6.32v-5.89Z"/>
  <path d="M531.14,322.67h-15.42c1.52-3.1,10.62-3.56,15.42,0Z"/>
  <path d="M736.32,254.24v-5.87h6.34v5.87h-6.34Z"/>
  <path d="M732.42,248.22v5.85h-6.12v-5.85h6.12Z"/>
  <path d="M747.02,288.59v-6.14h5.75v6.14h-5.75Z"/>
  <path d="M784.17,224.51v6.14h-5.81v-6.14h5.81Z"/>
  <path d="M742.62,264.92h-6.15v-5.72h6.15v5.72Z"/>
  <path d="M752.78,299.43h-5.56v-6.09h5.56v6.09Z"/>
  <path d="M747.13,224.53h5.78c.09,1.82,.19,3.72,.31,6.04h-6.08v-6.04Z"/>
  <path d="M767.75,213.94h6.02v5.82h-6.02v-5.82Z"/>
  <path d="M773.86,259.29v5.49h-6.04v-5.49h6.04Z"/>
  <path d="M757.39,213.88h6.12v5.77h-6.12v-5.77Z"/>
  <path d="M763.51,264.92h-6.1v-5.71h6.1v5.71Z"/>
  <path d="M742.62,219.8h-6.16v-5.77h6.16v5.77Z"/>
  <path d="M732.35,214.08v5.66h-6.09v-5.66h6.09Z"/>
  <path d="M747.12,248.18h5.85v5.89h-5.85v-5.89Z"/>
  <path d="M778.32,259.11h5.73v5.84h-5.73v-5.84Z"/>
  <path d="M109.19,404.62c1.59,.94,2.94,1.74,4.29,2.54-1.57,.47-3.15,1.3-4.71,1.29-1.54,0-3.08-.87-4.61-1.36,1.56-.76,3.12-1.53,5.04-2.47Z"/>
  <path d="M441.96,348.19h5.65v5.23h-5.31c-.11-1.65-.21-3.21-.35-5.23Z"/>
  <path d="M410.28,325.43h5.32v5.27h-5.32v-5.27Z"/>
  <path d="M437.12,319.56h-5.58v-5.32c1.72-.08,3.29-.15,5.24-.25,.11,1.87,.21,3.45,.34,5.57Z"/>
  <path d="M442.16,319.58v-5.3c1.7-.11,3.29-.2,5.28-.33v5.63h-5.28Z"/>
  <path d="M746.78,213.97h6.1v5.78h-5.82c-.08-1.68-.17-3.41-.29-5.78Z"/>
  <path d="M752.74,264.97h-5.59v-5.73h5.59v5.73Z"/>
  <path d="M426.64,353.46h-5.58v-5.28c1.6-.09,3.16-.17,5.16-.28,.14,1.81,.25,3.36,.42,5.56Z"/>
  <path d="M420.97,296.66v-5.05c1.71-.1,3.26-.19,5.26-.3,.13,1.84,.24,3.39,.38,5.36h-5.63Z"/>
  <path d="M436.92,291.79v5c-1.69,.11-3.25,.2-5.31,.33-.14-1.8-.25-3.34-.41-5.33h5.71Z"/>
  <path d="M426.58,330.84h-5.4v-5.35h5.12c.08,1.62,.16,3.2,.28,5.35Z"/>
  <path d="M426.18,319.58h-5.12v-5.32c1.59-.09,3.16-.19,5.12-.3v5.62Z"/>
  <path d="M436.84,303.12v5.16h-5.36c-.08-1.72-.15-3.28-.24-5.16h5.6Z"/>
  <path d="M410.27,308.15v-5.07h5.3c.12,1.58,.23,3.13,.38,5.07h-5.68Z"/>
  <path d="M20.11,435.82v-10.66c.42-.01,.85-.03,1.27-.04v10.55c-.42,.05-.85,.1-1.27,.15Z"/>
  <path d="M21.6,442.4v10.49c-2.9-1.68-3.27-6.64,0-10.49Z"/>
  <path d="M159.87,443.95c-1.62-1.32-2.76-2.26-3.9-3.19,1.31-.55,2.63-1.58,3.91-1.53,1.45,.05,2.85,1.08,4.28,1.68-1.24,.88-2.47,1.75-4.29,3.04Z"/>
  <path d="M159.71,411.84c-1.5-1.07-2.62-1.87-3.74-2.67,1.37-.66,2.74-1.85,4.11-1.84,1.37,0,2.73,1.21,4.1,1.89-1.34,.79-2.69,1.58-4.47,2.62Z"/>
  <path d="M155.71,461.53c1.93-.39,3.87-1.09,5.8-1.05,1.03,.02,2.02,1.33,3.03,2.05-.22,.39-.43,.79-.65,1.18h-7.7c-.16-.73-.32-1.46-.48-2.18Z"/>
  <path d="M20.19,470.39v-10.34c.46,0,.91,0,1.37,.01v10.24c-.46,.03-.91,.06-1.37,.09Z"/>
  <path d="M458.21,348.29v5.14h-5.17c-.1-1.64-.2-3.2-.32-5.14h5.49Z"/>
  <path d="M164.5,419.22c-.95,.77-1.87,2.12-2.86,2.18-1.82,.1-3.68-.56-5.52-.91,.61-.85,1.09-2.29,1.84-2.45,1.73-.37,3.59-.12,5.4-.12,.38,.43,.75,.86,1.13,1.29Z"/>
  <path d="M458.09,330.85h-4.92v-5.37h4.92v5.37Z"/>
  <path d="M163.89,431.91h-7.45c-.25-.45-.5-.9-.76-1.35,1.17-.68,2.33-1.9,3.51-1.92,1.96-.03,5.52-1.64,4.7,3.27Z"/>
  <path d="M928.63,448.36h4.5c1.33,4.23-.16,5.54-4.5,4.4v-4.4Z"/>
  <path d="M650.92,448.25h5.51c-.1,1.53,.24,3.18-.42,4.17-.45,.68-2.86,.99-3.39,.46-.91-.91-1.03-2.6-1.71-4.63Z"/>
  <path d="M431.5,342.29v-5.29c1.66-.12,3.22-.22,5.28-.37,.1,1.82,.19,3.35,.3,5.29-1.88,.12-3.43,.23-5.58,.37Z"/>
  <path d="M447.62,337.04v4.88c-1.64,.12-3.21,.24-5.31,.39-.11-1.81-.2-3.35-.31-5.27h5.62Z"/>
  <path d="M410.27,341.83c-.07-1.47-.14-2.89-.23-4.75h5.57c.08,1.5,.15,2.91,.25,4.75h-5.58Z"/>
  <path d="M529.85,332.84h-14.14c0-.44,0-.87,0-1.31h14.13c0,.44,0,.87,.01,1.31Z"/>
  <path d="M103.95,415.57c2.44-3.2,6.74-3.3,10.13,0h-10.13Z"/>
  <path d="M92.87,406c-1.89,2.76-7.82,3.92-9.26,2.54-.29-.28-.58-1.04-.43-1.23,.43-.54,1.06-1.22,1.65-1.26,2.4-.14,4.8-.06,8.04-.06Z"/>
  <path d="M577.22,448.13v4.58c-3.9,1.17-5.66,.23-4.56-4.37,1.35-.06,2.84-.13,4.56-.21Z"/>
  <path d="M1031.97,448.12c1.49,4.92-.54,5.64-4.51,4.65-.06-1.3-.12-2.68-.2-4.4,1.75-.09,3.17-.17,4.71-.25Z"/>
  <path d="M452.9,308.19v-5.06h5.25c.09,1.59,.18,3.16,.29,5.06h-5.54Z"/>
  <path d="M82.23,398.08c3.4,0,5.8-.12,8.18,.07,.68,.05,1.28,1,1.92,1.54-.56,.45-1.21,1.37-1.67,1.28-2.54-.49-5.94,1.67-8.43-2.9Z"/>
  <path d="M849.43,453.53v-5.18c1.59-.08,3-.15,4.97-.25,0,1.55,.51,3.42-.11,3.95-1.04,.89-2.81,.93-4.85,1.48Z"/>
  <path d="M750.65,452.82q-.3-4.69,4.34-4.46c1.38,3.95,.2,5.56-4.34,4.46Z"/>
  <path d="M829.72,453.87v-5.5h4.71c.08,1.16,.65,2.81,.15,3.26-1.11,.98-2.76,1.34-4.86,2.24Z"/>
  <path d="M111.69,349.74c2.03-3.32,6.47-3.46,9.63,0h-9.63Z"/>
  <path d="M120.85,358.02c-2.66,0-5.32,.06-7.98-.06-.41-.02-1.08-.84-1.09-1.29,0-.47,.63-1.34,1.01-1.36,2.73-.12,5.47-.06,8.2-.06l-.15,2.78Z"/>
  <path d="M497.04,459.15c1.29,2.13,2.57,3.32,2.36,4.12-.26,.96-1.71,2.01-2.78,2.2-.61,.1-2.11-1.46-2.11-2.27,0-.99,1.16-1.98,2.53-4.04Z"/>
  <path d="M500.12,450.04h-5.47c0-1.44-.48-3.08,.14-3.85,.59-.75,2.86-1.23,3.4-.74,.95,.87,1.16,2.56,1.94,4.59Z"/>
  <path d="M111.68,363.79h9.21c0,.49,0,.98-.01,1.47h-9.21c0-.49,0-.98,.01-1.47Z"/>
  <path d="M97.12,348.15h8.89c.02,.47,.04,.93,.07,1.4h-8.82c-.05-.47-.09-.93-.14-1.4Z"/>
  <path d="M97.22,363.08c2.97,.13,5.93,.26,8.9,.39-.04,.6-.07,1.2-.11,1.8h-8.97c.06-.73,.12-1.46,.18-2.19Z"/>
  <path d="M552.72,453.26v-4.91h4.73c.13,1.28,.26,2.56,.44,4.42-1.69,.16-3.2,.3-5.17,.49Z"/>
  <path d="M96.86,371.35h9.32c-2.13,3.53-6.85,3.55-9.32,0Z"/>
  <path d="M1007.75,452.84v-4.54h4.79c.08,1.42,.15,2.8,.24,4.54h-5.04Z"/>
  <path d="M908.81,452.9v-4.65c1.45,0,3.24-.51,3.84,.12,.9,.95,.95,2.69,1.49,4.53h-5.33Z"/>
  <path d="M735.59,448.33v4.62h-4.73v-4.62h4.73Z"/>
  <path d="M794.58,448.32c1.17,4.27-.2,5.6-4.32,4.41v-4.41h4.32Z"/>
  <path d="M810.23,448.5c3.92-1.15,5.39,.09,4.33,4.18-4.04,1.33-5.47,.04-4.33-4.18Z"/>
  <path d="M770.38,448.36h4.42c.07,1.16,.68,2.93,.09,3.53-.91,.92-2.64,1.04-4.51,1.66v-5.19Z"/>
  <path d="M710.27,448.28h5.73c-.31,1.73-.37,3.29-.96,4.61-.18,.4-2.37,.54-2.73,.08-.87-1.09-1.19-2.61-2.04-4.7Z"/>
  <path d="M873.81,452.77c-3.99,1.07-5.44-.15-4.3-4.34h4.3v4.34Z"/>
  <path d="M889.23,448.5c4.04-1.14,5.46,.15,4.36,4.17-3.71,1.33-5.28,.22-4.36-4.17Z"/>
  <path d="M695.8,452.67q-4.67,.52-4.36-4.08c4.16-1.45,5.21,.21,4.36,4.08Z"/>
  <path d="M670.27,448.33h5.68c.06,1.25,.59,2.82,.04,3.67-.5,.77-2.72,1.38-3.26,.94-1.03-.83-1.4-2.48-2.45-4.61Z"/>
  <path d="M947.53,448.3h5.75c-.33,1.74-.41,3.3-1.01,4.62-.18,.4-2.36,.51-2.73,.05-.86-1.09-1.18-2.6-2.01-4.66Z"/>
  <path d="M972.7,448.42c1.01,3.91-.1,5.5-4.14,4.43-1.24-3.6-.55-5.52,4.14-4.43Z"/>
  <path d="M988.13,453.18v-4.98c1.31,0,2.89-.45,3.4,.1,.93,.99,1.22,2.58,2,4.47-2.21,.17-3.59,.27-5.41,.41Z"/>
  <path d="M506.38,433.36c1.34-1.37,2.69-2.75,4.03-4.12,.47,.31,.94,.62,1.4,.93,.13,1.39,.26,2.77,.43,4.57-1.71,.11-3.09,.19-4.47,.28-.46-.55-.92-1.11-1.38-1.66Z"/>
  <path d="M616.61,452.84c-4.19,1.1-5.32-.49-4.35-4.26,3.79-1.26,5.5-.27,4.35,4.26Z"/>
  <path d="M1047.55,452.83c-1.28-4.16,.26-5.33,4.11-4.47,1,3.49,.6,5.63-4.11,4.47Z"/>
  <path d="M1073.16,452.97h-5.89v-4.72c1.03-.05,2.37-.5,2.84-.05,1.04,1.01,1.65,2.47,3.05,4.77Z"/>
  <path d="M592.34,453.48v-5.15h4.46c.05,1.23,.64,3.04,.04,3.62-.92,.9-2.66,.97-4.5,1.52Z"/>
  <path d="M533.07,453.85v-5.41h4.76c0,1.2,.45,2.78-.1,3.31-.97,.93-2.55,1.22-4.66,2.11Z"/>
  <path d="M506.34,448.41c1.38-1.31,2.76-2.62,4.14-3.92,.45,.33,.9,.65,1.36,.98,.1,1.37,.2,2.75,.33,4.45h-4.5c-.44-.5-.88-1-1.33-1.51Z"/>
  <path d="M474.54,461.99l-2.79,3.64c-.94-.94-1.87-1.87-2.81-2.81l3.77-2.7c.61,.62,1.22,1.24,1.83,1.87Z"/>
  <path d="M487.46,461.95c-.92,1.23-1.84,2.45-2.76,3.68-1.21-1.07-2.41-2.13-3.62-3.2,.3-.46,.6-.93,.9-1.39,1.39-.12,2.79-.24,4.18-.36,.43,.43,.86,.85,1.3,1.28Z"/>
  <path d="M469.27,445.64c4.16-1.28,5.28,.29,4.44,4.15-4.03,1.11-5.53-.08-4.44-4.15Z"/>
  <path d="M480.98,430.21h5.67c.07,1.54,.13,2.9,.2,4.58-1.4,.08-2.97,.62-3.47,.1-1-1.02-1.4-2.61-2.39-4.69Z"/>
  <path d="M636.46,448.46c1.2,4.35-.5,5.35-4.38,4.32-.92-3.68-.06-5.49,4.38-4.32Z"/>
  <path d="M538.06,61.4c-5.9-5.96-10.9-11.01-15.7-15.86,12.11-12.24,24.25-24.51,36.29-36.68,11.46,11.76,22.88,23.49,34.19,35.1-4.86,4.74-10.63,10.37-16.14,15.74-6.32-5.38-13.22-11.24-20.22-17.2-5.3,5.44-11.75,12.06-18.42,18.9Z" style="fill: #fff;"/>
  <path d="M606.78,439.16c-.63-5.1-1.65-10.3,3.27-13.2,2.22-1.31,6.28-1.45,8.57-.28,5.49,2.8,3.96,8.29,3.7,13.48h-15.54Z" style="fill: #fff;"/>
  <path d="M547.2,439c-.11-5.34-1.55-10.95,4.16-13.56,2.25-1.03,6-.76,8.19,.47,5.16,2.91,3.53,8.21,3.38,13.09h-15.72Z" style="fill: #fff;"/>
  <path d="M543.06,439.22h-15.68c-.36-4.91-1.69-10.03,3.18-13.11,2.12-1.34,5.88-1.79,8.14-.85,6.18,2.57,4.28,8.43,4.36,13.96Z" style="fill: #fff;"/>
  <path d="M602.58,439.27h-15.67c.28-4.73-1.78-9.65,2.97-13.34,2.77-2.15,5.78-2.47,8.83-.58,5.33,3.32,4.09,8.48,3.87,13.92Z" style="fill: #fff;"/>
  <path d="M582.83,439.25h-15.58c-.22-4.86-2.1-10.13,2.99-13.15,2.26-1.34,6.3-1.66,8.6-.54,5.52,2.69,4.25,8.26,3.99,13.69Z" style="fill: #fff;"/>
  <path d="M686.01,439.02c.14-4.89-1.87-10.26,3.39-13.17,2.2-1.21,5.95-1.42,8.19-.38,5.63,2.63,4.36,8.2,4.19,13.54h-15.78Z" style="fill: #fff;"/>
  <path d="M661.97,439.16h-15.48c-.39-5.01-1.96-10.25,3.2-13.23,2.18-1.26,5.98-1.54,8.23-.51,5.77,2.66,4.15,8.31,4.05,13.73Z" style="fill: #fff;"/>
  <path d="M642.17,439.45c-3.5,0-6.3,.12-9.08-.03-3.11-.16-7.29,1.62-6.94-4.56,.37-6.39,3-10.5,7.92-10.73,4.2-.2,7.85,3.22,8.08,7.71,.12,2.3,.02,4.61,.02,7.62Z" style="fill: #fff;"/>
  <path d="M681.85,439.15h-15.58c-.11-4.78-2.05-10.04,3.09-13.11,2.17-1.29,5.96-1.67,8.22-.67,5.77,2.55,4.45,8.17,4.27,13.78Z" style="fill: #fff;"/>
  <path d="M519,178.89c1.43,8.84,1.37,8.91-6.52,8.92-3.32,0-6.64,0-9.96,0q-7.97,0-6.67-8.92c3.76,0,7.66,0,11.57,0s7.61,0,11.59,0Z" style="fill: #fff;"/>
  <path d="M624.01,336.8h-51.58c-.81-9.69,10.88-18.22,25.21-18.6,14.19-.38,26.64,8.29,26.37,18.6Z" style="fill: #fff;"/>
  <path d="M941.29,283.85c1.24-10.19,7.75-17.11,15.45-16.79,7.51,.32,13.82,7.53,14.32,16.79h-29.76Z" style="fill: #fff;"/>
</svg>